<?xml version="1.0" encoding="UTF-8"?>
<svg viewBox="0 0 150 81" version="1.1" xmlns="http://www.w3.org/2000/svg" xmlns:xlink="http://www.w3.org/1999/xlink">
    <!-- Generator: Sketch 52.2 (67145) - http://www.bohemiancoding.com/sketch -->
    <title>logo</title>
    <desc>Created with Sketch.</desc>
    <defs>
        <polygon id="path-1" points="0 80.9219858 150 80.9219858 150 0.460099291 0 0.460099291"></polygon>
    </defs>
    <g id="Page-2" stroke="none" stroke-width="1" fill="none" fill-rule="evenodd">
        <g id="Desktop-HD" transform="translate(-645.000000, -4762.000000)">
            <g id="logo" transform="translate(645.000000, 4762.000000)">
                <path d="M142.788577,79.477066 L7.21165385,79.477066 C4.02530769,79.477066 1.44242308,76.8887184 1.44242308,73.6969241 L1.44242308,7.6853922 C1.44242308,4.49301986 4.02530769,1.90525035 7.21165385,1.90525035 L142.788577,1.90525035 C145.974346,1.90525035 148.557808,4.49301986 148.557808,7.6853922 L148.557808,73.6969241 C148.557808,76.8887184 145.974346,79.477066 142.788577,79.477066 Z" id="Stroke-22" stroke="#000000" stroke-width="2.88461538"></path>
                <polygon id="Fill-1" fill="#000000" points="20.8726415 18.2410666 20 18.2410666 20 17.5 22.5 17.5 22.5 18.2410666 21.6273585 18.2410666 21.6273585 23 20.8726415 23"></polygon>
                <polygon id="Fill-2" fill="#000000" points="24 17.5 24.7726308 17.5 24.7726308 19.8557692 25.7267798 19.8557692 25.7267798 17.5 26.5 17.5 26.5 23 25.7267798 23 25.7267798 20.5510817 24.7726308 20.5510817 24.7726308 23 24 23"></polygon>
                <polygon id="Fill-3" fill="#000000" points="28 17.5 30.5 17.5 30.5 18.2409856 28.8388789 18.2409856 28.8388789 19.8557692 30.286281 19.8557692 30.286281 20.5973558 28.8388789 20.5973558 28.8388789 22.2115385 30.5 22.2115385 30.5 23 28 23"></polygon>
                <g id="Group-23">
                    <path d="M42.9741346,32.3359053 C42.9741346,32.9618947 42.8558654,33.5601394 42.61875,34.1300613 C42.3816346,34.6988273 42.0550962,35.1970755 41.6385577,35.624228 C41.2214423,36.0519585 40.7333654,36.3935649 40.1749038,36.6496252 C39.6158654,36.9056855 39.0141346,37.0340046 38.3702885,37.0340046 C37.8199038,37.0340046 37.2620192,36.9577067 36.69375,36.806267 C36.1249038,36.6542493 35.6131731,36.3935649 35.1591346,36.0230578 C34.7045192,35.6531287 34.3295192,35.1647067 34.0364423,34.5566358 C33.7427885,33.9497209 33.5956731,33.1809621 33.5956731,32.2509372 L33.5956731,21.0889053 C33.5956731,20.425345 33.7093269,19.8074479 33.9366346,19.2381039 C34.1639423,18.6687599 34.4858654,18.1751358 34.9029808,17.7578096 C35.3195192,17.3404833 35.8168269,17.0133273 36.3949038,16.7757635 C36.9729808,16.5381996 37.6122115,16.4197067 38.3131731,16.4197067 C38.9766346,16.4197067 39.5922115,16.5381996 40.1604808,16.7757635 C40.7293269,17.0133273 41.2214423,17.3451074 41.6385577,17.7716819 C42.0550962,18.1988344 42.3816346,18.711533 42.61875,19.3091996 C42.8558654,19.9074443 42.9741346,20.5582883 42.9741346,21.2599975 L42.9741346,22.3986855 L40.0756731,22.3986855 L40.0756731,21.4310897 C40.0756731,20.8611677 39.9141346,20.3675436 39.5922115,19.9502174 C39.2697115,19.5328911 38.8341346,19.32365 38.2849038,19.32365 C37.5649038,19.32365 37.0860577,19.5473415 36.8500962,19.9929904 C36.6129808,20.4392174 36.4947115,21.0039372 36.4947115,21.68715 L36.4947115,32.0509443 C36.4947115,32.6393628 36.6222115,33.1329869 36.8783654,33.5318167 C37.1339423,33.9300684 37.5931731,34.1300613 38.2566346,34.1300613 C38.4452885,34.1300613 38.6495192,34.0965365 38.8670192,34.0300649 C39.0850962,33.9635933 39.2841346,33.8543486 39.4641346,33.7029089 C39.6441346,33.5508911 39.79125,33.342228 39.9049038,33.0763415 C40.0185577,32.810455 40.0756731,32.4780968 40.0756731,32.079845 L40.0756731,31.0833486 L42.9741346,31.0833486 L42.9741346,32.3359053 Z" id="Fill-4" fill="#000000"></path>
                    <path d="M48.7712308,32.0796138 C48.7712308,32.7819011 48.9656538,33.2998018 49.3545,33.6315819 C49.7421923,33.9639401 50.2014231,34.1298301 50.7327692,34.1298301 C51.2623846,34.1298301 51.7221923,33.9639401 52.1104615,33.6315819 C52.4993077,33.2998018 52.6931538,32.7819011 52.6931538,32.0796138 L52.6931538,21.3736351 C52.6931538,20.6719259 52.4993077,20.1546032 52.1104615,19.822245 C51.7221923,19.4904649 51.2623846,19.3234188 50.7327692,19.3234188 C50.2014231,19.3234188 49.7421923,19.4904649 49.3545,19.822245 C48.9656538,20.1546032 48.7712308,20.6719259 48.7712308,21.3736351 L48.7712308,32.0796138 Z M45.8727692,21.3736351 C45.8727692,20.5580571 46.0152692,19.8361174 46.2985385,19.210128 C46.5829615,18.5835606 46.9568077,18.066816 47.4212308,17.6581599 C47.8850769,17.2500819 48.4060385,16.9420004 48.9846923,16.7327592 C49.5627692,16.5240961 50.1448846,16.4194755 50.7327692,16.4194755 C51.3195,16.4194755 51.9021923,16.5240961 52.4802692,16.7327592 C53.0577692,16.9420004 53.5787308,17.2500819 54.0437308,17.6581599 C54.5075769,18.066816 54.882,18.5835606 55.1658462,19.210128 C55.4502692,19.8361174 55.5921923,20.5580571 55.5921923,21.3736351 L55.5921923,32.0796138 C55.5921923,32.9148443 55.4502692,33.6414082 55.1658462,34.2575713 C54.882,34.8743124 54.5075769,35.387589 54.0437308,35.795089 C53.5787308,36.203745 53.0577692,36.5118266 52.4802692,36.7204897 C51.9021923,36.9291528 51.3195,37.0337734 50.7327692,37.0337734 C50.1448846,37.0337734 49.5627692,36.9291528 48.9846923,36.7204897 C48.4060385,36.5118266 47.8850769,36.203745 47.4212308,35.795089 C46.9568077,35.387589 46.5829615,34.8743124 46.2985385,34.2575713 C46.0152692,33.6414082 45.8727692,32.9148443 45.8727692,32.0796138 L45.8727692,21.3736351 Z" id="Fill-6" fill="#000000"></path>
                    <path d="M68.2384615,22.4272394 L65.34,22.4272394 L65.34,21.7723493 C65.34,21.108211 65.1836538,20.5336649 64.8709615,20.049867 C64.5582692,19.5660691 64.0326923,19.3233032 63.2930769,19.3233032 C62.8955769,19.3233032 62.5684615,19.3996011 62.3128846,19.5516188 C62.0573077,19.7036365 61.8582692,19.8984273 61.7163462,20.1354131 C61.5738462,20.3723989 61.4740385,20.6475337 61.4175,20.9608174 C61.3609615,21.2741011 61.3326923,21.6018351 61.3326923,21.9434415 C61.3326923,22.3422713 61.3471154,22.6792535 61.3753846,22.9538103 C61.4036538,23.229523 61.4740385,23.4665089 61.5882692,23.6659238 C61.7019231,23.8653387 61.8680769,24.041055 62.0855769,24.1924947 C62.3030769,24.3450904 62.6013462,24.4965301 62.9809615,24.6479699 L65.1975,25.5311755 C65.8413462,25.7779876 66.3628846,26.0675727 66.7603846,26.3993528 C67.1584615,26.731711 67.4659615,27.1207145 67.6846154,27.5669415 C67.9015385,28.0131684 68.0486538,28.525289 68.1248077,29.1044592 C68.2003846,29.6836294 68.2384615,30.3425656 68.2384615,31.0830018 C68.2384615,31.9373067 68.1536538,32.7303422 67.9823077,33.4603741 C67.8121154,34.1915621 67.5323077,34.8181294 67.1446154,35.3394982 C66.7557692,35.862023 66.2388462,36.2753032 65.5955769,36.5781826 C64.9511538,36.8816401 64.1648077,37.0342358 63.2365385,37.0342358 C62.5355769,37.0342358 61.8819231,36.9105408 61.2761538,36.6637287 C60.6692308,36.4174947 60.1488462,36.0799344 59.7126923,35.6527819 C59.2765385,35.2262074 58.9315385,34.718711 58.6753846,34.1297145 C58.4192308,33.5418741 58.2917308,32.9054805 58.2917308,32.2216897 L58.2917308,31.1402252 L61.1907692,31.1402252 L61.1907692,32.0511755 C61.1907692,32.5829486 61.3471154,33.0621223 61.6598077,33.4892748 C61.9725,33.9158493 62.4980769,34.1297145 63.2365385,34.1297145 C63.7292308,34.1297145 64.1128846,34.0586188 64.3875,33.9158493 C64.6621154,33.7736578 64.8709615,33.5742429 65.0128846,33.3181826 C65.1553846,33.0621223 65.2448077,32.7442145 65.2828846,32.3638812 C65.3203846,31.9847039 65.34,31.5673777 65.34,31.1113245 C65.34,30.5801294 65.3203846,30.1437287 65.2828846,29.8015443 C65.2448077,29.4599379 65.1640385,29.1848032 65.0411538,28.9761401 C64.9182692,28.767477 64.7469231,28.5969628 64.53,28.4634415 C64.3113462,28.3310762 64.0223077,28.1883067 63.6628846,28.036867 L61.5882692,27.1825621 C60.3380769,26.6698635 59.4998077,25.9912748 59.0728846,25.1462181 C58.6471154,24.3017394 58.4336538,23.2433954 58.4336538,21.9717642 C58.4336538,21.2128316 58.5380769,20.4908918 58.7463462,19.8076791 C58.9546154,19.1244663 59.2626923,18.5366259 59.67,18.0424238 C60.0773077,17.5493777 60.5942308,17.155172 61.2190385,16.8609628 C61.8444231,16.5667535 62.5736538,16.4193599 63.4073077,16.4193599 C64.1267308,16.4193599 64.785,16.5523032 65.3821154,16.8181897 C65.9786538,17.0840762 66.4909615,17.4349309 66.9167308,17.8719096 C67.3436538,18.3088883 67.6701923,18.7973103 67.8975,19.3377535 C68.1248077,19.8787748 68.2384615,20.4342465 68.2384615,21.0035904 L68.2384615,22.4272394 Z" id="Fill-8" fill="#000000"></path>
                    <mask id="mask-2" fill="white">
                        <use xlink:href="#path-1"></use>
                    </mask>
                    <g id="Clip-11"></g>
                    <polygon id="Fill-10" fill="#000000" mask="url(#mask-2)" points="71.1940385 36.8628546 74.0930769 36.8628546 74.0930769 16.5901631 71.1940385 16.5901631"></polygon>
                    <path d="M77.4460962,21.3736929 C77.4460962,20.5581149 77.5885962,19.8361752 77.8718654,19.2101858 C78.1562885,18.5836184 78.5301346,18.0668738 78.9945577,17.6582177 C79.4584038,17.2501397 79.9793654,16.9420582 80.5574423,16.732817 C81.1360962,16.5241539 81.7182115,16.4195333 82.3060962,16.4195333 C82.89225,16.4195333 83.4755192,16.5241539 84.0535962,16.732817 C84.6310962,16.9420582 85.1520577,17.2501397 85.6170577,17.6582177 C86.0809038,18.0668738 86.45475,18.5836184 86.7391731,19.2101858 C87.0235962,19.8361752 87.1655192,20.5581149 87.1655192,21.3736929 L87.1655192,22.3985121 L84.2664808,22.3985121 L84.2664808,21.3736929 C84.2664808,20.6719837 84.0720577,20.154661 83.6837885,19.8223028 C83.2955192,19.4905227 82.8357115,19.3234766 82.3060962,19.3234766 C81.77475,19.3234766 81.3155192,19.4905227 80.9278269,19.8223028 C80.5389808,20.154661 80.3445577,20.6719837 80.3445577,21.3736929 L80.3445577,32.0796716 C80.3445577,32.7819589 80.5389808,33.2998596 80.9278269,33.6316397 C81.3155192,33.9639979 81.77475,34.1298879 82.3060962,34.1298879 C82.8357115,34.1298879 83.2955192,33.9639979 83.6837885,33.6316397 C84.0720577,33.2998596 84.2664808,32.7819589 84.2664808,32.0796716 L84.2664808,28.2642 L81.9645577,28.2642 L81.9645577,25.7018631 L87.1655192,25.7018631 L87.1655192,32.0796716 C87.1655192,32.9149021 87.0235962,33.641466 86.7391731,34.2576291 C86.45475,34.8743702 86.0809038,35.3876468 85.6170577,35.7951468 C85.1520577,36.2038028 84.6310962,36.5118844 84.0535962,36.7205475 C83.4755192,36.9292106 82.89225,37.0338312 82.3060962,37.0338312 C81.7182115,37.0338312 81.1360962,36.9292106 80.5574423,36.7205475 C79.9793654,36.5118844 79.4584038,36.2038028 78.9945577,35.7951468 C78.5301346,35.3876468 78.1562885,34.8743702 77.8718654,34.2576291 C77.5885962,33.641466 77.4460962,32.9149021 77.4460962,32.0796716 L77.4460962,21.3736929 Z" id="Fill-12" fill="#000000" mask="url(#mask-2)"></path>
                    <polygon id="Fill-13" fill="#000000" mask="url(#mask-2)" points="90.3198462 16.5903943 93.1046538 16.5903943 97.4811923 28.8055681 97.5377308 28.8055681 97.5377308 16.5903943 100.436769 16.5903943 100.436769 36.8630858 97.7090769 36.8630858 93.2748462 24.6768128 93.2177308 24.6768128 93.2177308 36.8630858 90.3198462 36.8630858"></polygon>
                    <path d="M76.2469038,51.0920032 L73.3484423,51.0920032 L73.3484423,50.4371131 C73.3484423,49.7729748 73.1920962,49.1990067 72.8794038,48.7146309 C72.5667115,48.230255 72.0411346,47.988645 71.3015192,47.988645 C70.9040192,47.988645 70.5769038,48.0649429 70.3213269,48.2163826 C70.06575,48.3689784 69.8667115,48.5631911 69.7247885,48.800177 C69.5822885,49.0377408 69.4824808,49.3122975 69.4259423,49.6255812 C69.3694038,49.9388649 69.3411346,50.2660209 69.3411346,50.6082053 C69.3411346,51.0070351 69.3555577,51.3445954 69.3838269,51.6185741 C69.4120962,51.8942869 69.4824808,52.1312727 69.5967115,52.3306876 C69.7103654,52.5301025 69.8765192,52.7058188 70.0940192,52.8578365 C70.3115192,53.0092762 70.6097885,53.161294 70.9894038,53.3127337 L73.2059423,54.1959394 C73.8497885,54.4421734 74.3713269,54.7317585 74.7688269,55.0641167 C75.1669038,55.3964748 75.4744038,55.7860564 75.6930577,56.2317053 C75.9099808,56.6779323 76.0570962,57.1906309 76.13325,57.769223 C76.2088269,58.3483933 76.2469038,59.0073294 76.2469038,59.7483436 C76.2469038,60.6020706 76.1620962,61.395106 75.99075,62.125716 C75.8205577,62.8569039 75.54075,63.4828933 75.1530577,64.0048401 C74.7642115,64.5267869 74.2472885,64.939489 73.6040192,65.2429465 C72.9595962,65.5464039 72.17325,65.6989996 71.2449808,65.6989996 C70.5440192,65.6989996 69.8897885,65.5753046 69.2845962,65.3284926 C68.6776731,65.0822585 68.1572885,64.7446982 67.7211346,64.3181238 C67.2849808,63.8903933 66.9399808,63.3834748 66.6838269,62.7944784 C66.4276731,62.2066379 66.3001731,61.5696663 66.3001731,60.8864535 L66.3001731,59.804989 L69.1992115,59.804989 L69.1992115,60.7159394 C69.1992115,61.2477124 69.3555577,61.7263082 69.66825,62.1540387 C69.9809423,62.5806131 70.5065192,62.7944784 71.2449808,62.7944784 C71.7376731,62.7944784 72.1213269,62.7233826 72.3959423,62.5806131 C72.6705577,62.4384216 72.8794038,62.2390067 73.0213269,61.9829465 C73.16325,61.7263082 73.25325,61.4089784 73.2913269,61.029223 C73.3288269,60.6494677 73.3484423,60.2321415 73.3484423,59.7766663 C73.3484423,59.2448933 73.3288269,58.8084926 73.2913269,58.4668862 C73.25325,58.1247018 73.1724808,57.850145 73.0495962,57.6409039 C72.9267115,57.4322408 72.7553654,57.2611486 72.5384423,57.1282053 C72.3197885,56.9958401 72.03075,56.8536486 71.67075,56.7016309 L69.5967115,55.8473259 C68.3465192,55.3346273 67.50825,54.6560387 67.0813269,53.8109819 C66.6555577,52.9670812 66.4420962,51.9081592 66.4420962,50.636528 C66.4420962,49.8770174 66.5465192,49.1556557 66.7547885,48.4730209 C66.9630577,47.7892301 67.2711346,47.2013897 67.6784423,46.7071876 C68.08575,46.2141415 68.6026731,45.8199358 69.2274808,45.5257266 C69.8528654,45.2315174 70.5820962,45.0841238 71.41575,45.0841238 C72.1351731,45.0841238 72.7934423,45.217067 73.3905577,45.4829535 C73.9870962,45.7488401 74.4988269,46.0996947 74.9251731,46.5366734 C75.3520962,46.9736521 75.6786346,47.4620741 75.9059423,48.0030954 C76.13325,48.5435387 76.2469038,49.0990103 76.2469038,49.6689323 L76.2469038,51.0920032 Z" id="Fill-14" fill="#000000" mask="url(#mask-2)"></path>
                    <polygon id="Fill-15" fill="#000000" mask="url(#mask-2)" points="81.0211731 47.9885872 77.6675192 47.9885872 77.6675192 45.2551582 87.2732885 45.2551582 87.2732885 47.9885872 83.9196346 47.9885872 83.9196346 65.5278496 81.0211731 65.5278496"></polygon>
                    <path d="M98.6409808,60.971884 C98.6409808,61.6371784 98.5169423,62.2539195 98.2705962,62.8226855 C98.0248269,63.3920294 97.6884808,63.8902777 97.2621346,64.3180082 C96.8357885,64.7445826 96.3384808,65.0821429 95.7696346,65.328377 C95.2019423,65.575189 94.5950192,65.698884 93.95175,65.698884 C93.3073269,65.698884 92.7015577,65.575189 92.1327115,65.328377 C91.5638654,65.0821429 91.0671346,64.7445826 90.6402115,64.3180082 C90.2144423,63.8902777 89.8775192,63.3920294 89.63175,62.8226855 C89.3848269,62.2539195 89.2625192,61.6371784 89.2625192,60.971884 L89.2625192,45.2551004 L92.1609808,45.2551004 L92.1609808,60.6875011 C92.1609808,61.4088628 92.3311731,61.9406358 92.6721346,62.2822422 C93.0136731,62.6238486 93.4400192,62.7943628 93.95175,62.7943628 C94.4629038,62.7943628 94.8898269,62.6238486 95.2302115,62.2822422 C95.57175,61.9406358 95.7419423,61.4088628 95.7419423,60.6875011 L95.7419423,45.2551004 L98.6409808,45.2551004 L98.6409808,60.971884 Z" id="Fill-16" fill="#000000" mask="url(#mask-2)"></path>
                    <path d="M104.977558,62.7942472 L106.313712,62.7942472 C107.12775,62.7942472 107.705827,62.5902082 108.046788,62.1821301 C108.38775,61.7740521 108.559096,61.1336124 108.559096,60.260233 L108.559096,50.4941053 C108.559096,49.6970238 108.397558,49.0802826 108.075635,48.6433039 C107.753135,48.2069032 107.165827,47.9884138 106.313712,47.9884138 L104.977558,47.9884138 L104.977558,62.7942472 Z M102.079096,45.2549848 L106.370827,45.2549848 C108.018519,45.2549848 109.277942,45.7156621 110.15025,46.6358606 C111.021404,47.5572152 111.456981,48.8427188 111.456981,50.4941053 L111.456981,59.97585 C111.456981,61.8740486 110.99775,63.2739989 110.078712,64.175123 C109.16025,65.0774032 107.837942,65.5276762 106.114673,65.5276762 L102.079096,65.5276762 L102.079096,45.2549848 Z" id="Fill-17" fill="#000000" mask="url(#mask-2)"></path>
                    <polygon id="Fill-18" fill="#000000" mask="url(#mask-2)" points="114.981346 65.527734 117.879808 65.527734 117.879808 45.2550426 114.981346 45.2550426"></polygon>
                    <path d="M124.132096,60.7446667 C124.132096,61.4469539 124.326519,61.9642766 124.714212,62.2960567 C125.102481,62.6284149 125.562288,62.794305 126.092481,62.794305 C126.62325,62.794305 127.082481,62.6284149 127.471327,62.2960567 C127.859019,61.9642766 128.054019,61.4469539 128.054019,60.7446667 L128.054019,50.0386879 C128.054019,49.3369787 127.859019,48.819078 127.471327,48.4867199 C127.082481,48.1555177 126.62325,47.9884716 126.092481,47.9884716 C125.562288,47.9884716 125.102481,48.1555177 124.714212,48.4867199 C124.326519,48.819078 124.132096,49.3369787 124.132096,50.0386879 L124.132096,60.7446667 Z M121.233635,50.0386879 C121.233635,49.2225319 121.375558,48.5011702 121.659404,47.8746028 C121.943827,47.2480355 122.317096,46.7312908 122.782096,46.3232128 C123.245942,45.9145567 123.766904,45.6064752 124.344981,45.3978121 C124.922481,45.1891489 125.50575,45.0845284 126.092481,45.0845284 C126.680365,45.0845284 127.262481,45.1891489 127.840558,45.3978121 C128.418635,45.6064752 128.939596,45.9145567 129.403442,46.3232128 C129.867865,46.7312908 130.242288,47.2480355 130.526135,47.8746028 C130.810558,48.5011702 130.953058,49.2225319 130.953058,50.0386879 L130.953058,60.7446667 C130.953058,61.5798972 130.810558,62.305883 130.526135,62.9226241 C130.242288,63.5399433 129.867865,64.0520638 129.403442,64.4601418 C128.939596,64.8687979 128.418635,65.1763014 127.840558,65.3855426 C127.262481,65.5942057 126.680365,65.6988262 126.092481,65.6988262 C125.50575,65.6988262 124.922481,65.5942057 124.344981,65.3855426 C123.766904,65.1763014 123.245942,64.8687979 122.782096,64.4601418 C122.317096,64.0520638 121.943827,63.5399433 121.659404,62.9226241 C121.375558,62.305883 121.233635,61.5798972 121.233635,60.7446667 L121.233635,50.0386879 Z" id="Fill-19" fill="#000000" mask="url(#mask-2)"></path>
                    <polygon id="Fill-20" fill="#000000" mask="url(#mask-2)" points="107.859808 27.9926489 130.785577 27.9926489 130.785577 24.897383 107.859808 24.897383"></polygon>
                    <polygon id="Fill-21" fill="#000000" mask="url(#mask-2)" points="19.8444231 63.813344 58.8784615 63.813344 58.8784615 60.7175 19.8444231 60.7175"></polygon>
                </g>
            </g>
        </g>
    </g>
</svg>