<svg height="2291" viewBox="0 0 1440 2291" width="1440" xmlns="http://www.w3.org/2000/svg"><path d="m766.439095 954.24703c-78.39566 105.30369-185.604351 331.5862-278.498027 359.18726s-219.58149 380.32493-219.58149 591.25681 42.866154 432.70131 290.41819 544.9029c247.552036 112.2016 252.733299 36.41696 560.961352 150.30914 308.22806 113.89218 615.79961 181.43743 869.81559 173.376s861.84783-225.88023 971.47972-343.8832c109.63189-118.00298 227.17747-456.39478 80.59904-641.25603-97.71895-123.24083-84.20704-268.32879 40.53573-435.26388 63.05163-160.27315 14.63612-271.3767-145.24651-333.31065-159.88263-61.933946-286.71235-173.660259-380.48915-335.178934-221.85147-337.704263-463.74873-436.704863-725.6918-297.0018-392.9146 209.554594-455.04325 39.990231-693.29983 94.877365s-292.607154 366.68133-371.002815 471.985019z" fill="#fff7ec" fill-rule="evenodd" transform="matrix(.96592583 .25881905 .25881905 -.96592583 -1241.606753 2059.952409)"/></svg>