<svg height="1101" viewBox="0 0 950 1101" width="950" xmlns="http://www.w3.org/2000/svg" xmlns:xlink="http://www.w3.org/1999/xlink"><linearGradient id="a" x1="97.111251%" x2="13.398651%" y1="17.766764%" y2="50%"><stop offset="0" stop-color="#fff9ef"/><stop offset="1" stop-color="#fff1dc"/></linearGradient><linearGradient id="b" x1="-4.036336%" x2="74.066951%" y1="51.788112%" y2="51.788112%"><stop offset="0" stop-color="#fff5de"/><stop offset="1" stop-color="#ffeabf"/></linearGradient><linearGradient id="c" x1="100%" x2="5.98618%" y1="1.818102%" y2="94.920601%"><stop offset="0" stop-color="#ffedcb"/><stop offset=".454977292" stop-color="#ffe4af"/><stop offset=".714170719" stop-color="#ffe5b2"/><stop offset="1" stop-color="#fff8ed"/></linearGradient><linearGradient id="d" x1="0%" x2="86.124617%" y1="0%" y2="83.097411%"><stop offset="0" stop-color="#fff1d7"/><stop offset=".438800521" stop-color="#ffe4af"/><stop offset="1" stop-color="#ffe4af"/></linearGradient><linearGradient id="e" x1="0%" x2="100%" y1="0%" y2="101.30624%"><stop offset="0" stop-color="#fff7ec"/><stop offset=".470916699" stop-color="#ffe4af"/><stop offset="1" stop-color="#fff1d4"/></linearGradient><linearGradient id="f" x1="0%" x2="80.704484%" y1="0%" y2="79.290172%"><stop offset="0" stop-color="#fff7ec"/><stop offset=".34305136" stop-color="#ffe6b6"/><stop offset=".48291214" stop-color="#fff" stop-opacity="0"/><stop offset=".607263526" stop-color="#ffe9bd" stop-opacity=".827377"/><stop offset=".921083355" stop-color="#ffe5b2" stop-opacity=".965313"/><stop offset="1" stop-color="#fff0d0"/></linearGradient><linearGradient id="g" x1="100%" x2="-3.825274%" y1="2.360269%" y2="103.236914%"><stop offset="0" stop-color="#ffedcb"/><stop offset=".15889639" stop-color="#ffe4af"/><stop offset=".460961566" stop-color="#fff3da"/><stop offset=".75554597" stop-color="#ffe5b2"/><stop offset="1" stop-color="#fff8ed"/></linearGradient><linearGradient id="h" x1="15.598988%" x2="74.192998%" y1="10.524217%" y2="39.286188%"><stop offset="0" stop-color="#fce5bc"/><stop offset="1" stop-color="#ffedcd" stop-opacity=".257445"/></linearGradient><linearGradient id="i" x1="14.097977%" x2="100%" y1="41.900213%" y2="62.76088%"><stop offset="0" stop-color="#fff" stop-opacity=".64439"/><stop offset="1" stop-color="#fff" stop-opacity=".188661"/></linearGradient><filter id="j" height="100%" width="100%" x="0%" y="0%"><feGaussianBlur in="SourceGraphic" stdDeviation="0"/></filter><linearGradient id="k" x1="87.522306%" x2="14.613687%" y1="40.766805%" y2="135.201991%"><stop offset="0" stop-color="#fff" stop-opacity=".796677"/><stop offset="1" stop-color="#fff" stop-opacity="0"/></linearGradient><linearGradient id="l" x1="50%" x2="50%" y1="35.673023%" y2="100%"><stop offset="0" stop-color="#fff"/><stop offset="1" stop-color="#fff" stop-opacity=".158486"/></linearGradient><linearGradient id="m"><stop offset="0" stop-color="#ffeac5"/><stop offset="1" stop-color="#fff4e3"/></linearGradient><linearGradient id="n" x1="21.826402%" x2="81.797942%" xlink:href="#m" y1="47.105443%" y2="42.604681%"/><linearGradient id="o" x1="-20.32739%" x2="98.190525%" y1="50%" y2="50%"><stop offset="0" stop-color="#49dcb6"/><stop offset="1" stop-color="#2bce90"/></linearGradient><linearGradient id="p" x1="33.901369%" x2="83.848619%" xlink:href="#m" y1="44.920137%" y2="32.97888%"/><linearGradient id="q" x1="0%" x2="100%" y1="174.795752%" y2="-16.413213%"><stop offset="0" stop-color="#8684ff"/><stop offset="1" stop-color="#bebdff"/></linearGradient><linearGradient id="r" x1="20.002651%" x2="80.031064%" y1="29.938567%" y2="40.565523%"><stop offset="0" stop-color="#ffe6ba"/><stop offset="1" stop-color="#ffedcb"/></linearGradient><linearGradient id="s" x1="5.414453%" x2="100%" y1="50%" y2="50%"><stop offset="0" stop-color="#ffe9af"/><stop offset="1" stop-color="#fee2a9"/></linearGradient><linearGradient id="t" x1="33.360912%" x2="100%" y1="36.412368%" y2="62.730416%"><stop offset="0" stop-color="#ffe6ba"/><stop offset="1" stop-color="#fff0d3"/></linearGradient><linearGradient id="u" x1="76.976513%" x2="58.205874%" y1="100%" y2="160.000753%"><stop offset="0" stop-color="#ff8781"/><stop offset="1" stop-color="#f47883"/></linearGradient><g fill="none" fill-rule="evenodd"><g transform=""><path d="m0 124.379042c73.3037851-81.5860279 202.914086-122.379042 388.830904-122.379042 185.916817 0 352.782185 40.7930141 500.596102 122.379042 182.117324 149.128996 228.729744 314.336729 139.837284 495.623201-133.338702 271.929709-339.050863 38.229113-472.23107 314.52932-88.786805 184.200137-274.464545 212.135847-557.03322 83.807137z" fill="url(#a)" transform="matrix(-1 0 0 -1 1073 1099.379042)"/><path d="m1000.42877 1034.55206c-75.100106 40.55132-178.186664 60.82698-309.259674 60.82698-34.374298 0-68.09733-1.39449-101.169096-4.18347v-1022.1297775c89.692328-83.6525868 226.501918-91.3150739 410.42877-22.9874612z" fill="url(#b)" opacity=".602779"/><g stroke-width="4"><path d="m34 868.505743 852.063671-852.0636713" stroke="url(#c)"/><path d="m701.052364 9.05236417 280.433466 280.43346583" stroke="url(#d)"/><path d="m35.5 402.5 722.703096 696.64614" stroke="url(#e)"/><path d="m418.032741 246.032741 660.467259 660.467259" stroke="url(#f)"/><path d="m336 1063.50574 636.396103-636.3961" stroke="url(#g)"/></g></g><g transform="translate(477 322)"><path d="m316.127208 401.181195 74.83433-261.662541-56.453578-68.1810615c-10.238837 48.7329055-22.735187 101.7585175-37.489049 159.0768365-7.548284 29.324859-29.750418 111.870376-66.606401 247.63655z" fill="url(#h)"/><path d="m236.513166 454.521665 95.352589-355.8607068c5.903254-22.0312441-7.172254-44.6714001-29.208673-50.5760408l-144.302646-38.6657773c-22.035258-5.90432962-44.680741 7.1665057-50.583473 29.1957997l-95.352589 355.8607072c-5.90325406 22.031244 7.1722539 44.6714 29.208673 50.576041l144.302646 38.665777c22.035258 5.90433 44.680741-7.166506 50.583473-29.1958z" stroke="#fff" stroke-width="8"/><path d="m52 247.342441c11.9016903 13.292616 29.194387 21.657559 48.440821 21.657559 35.898509 0 65-29.101491 65-65s-29.101491-65-65-65c-6.8435397 0-13.440062 1.057606-19.63504 3.018291-1.0467553.331294-10.6486823 35.439344-28.805781 105.32415z" fill="url(#i)" filter="url(#j)"/><path d="m6.83789155 396.706533 231.97833545 1.445628.710215 24.077653c.765328 25.946099-19.64772 47.599988-45.593818 48.365316-.536997.01584-1.074225.022471-1.611449.019891l-147.3109293-.707413c-21.5388569-.103433-38.91570103-17.647976-38.81226763-39.186833.00088167-.183598.00305983-.367188.0065343-.550756z" fill="#fff" opacity=".74913" transform="matrix(.96592583 .25881905 -.25881905 .96592583 116.435745 -17.055529)"/><path d="m258.106419 344.743158-1.154026 31.106468-1.469227 41.655626-110.778045-2.631074 72.033211-73.215134c10.529226-10.70199 27.740527-10.842043 38.442517-.312817 1.067055 1.049829 2.045571 2.186002 2.92557 3.396931z" fill="url(#k)" transform="matrix(.97029573 .2419219 -.2419219 .97029573 96.829761 -37.569838)"/><path d="m329.911276 71.5443535-.782687 86.0074355c-11.357061 4.181824-6.659399 2.987783-19.935472 4.676999-48.403746 6.158777-91.193532-6.365206-107.265789-41.87129-1.932391.36082-3.888139.668026-5.865535.919625-44.406695 5.650202-86.111907-12.075324-98.2345035-49.3245803-.7041397-2.1636189-.5877908-19.0669342 9.2854185-30.5928261.978681-1.1425034 8.181928-11.6170092 27.074088-12.8989584 16.735457-1.1356036 68.238442-.8993716 154.508955.7086962 23.035675.429381 41.425182 19.3361771 41.215525 42.3748991z" fill="url(#l)" transform="matrix(.96592583 .25881905 -.25881905 .96592583 32.063576 -52.058575)"/><path d="m212.761877 55.9315431c-1.932996 0-3.5 1.5670033-3.5 3.5 0 1.9329966 1.567004 3.5 3.5 3.5h25c1.932997 0 3.5-1.5670034 3.5-3.5 0-1.9329967-1.567003-3.5-3.5-3.5z" fill="#fff0d3" transform="matrix(.96592583 .25881905 -.25881905 .96592583 23.057628 -56.276983)"/></g><g transform="translate(347 577)"><path d="m179.810074 121.267951 42.363103 10.708747-20.370693-106.6225732-49.216303-21.36402977z" fill="url(#n)" opacity=".602779"/><g transform="matrix(.98162718 -.190809 .190809 .98162718 0 32.055911)"><rect fill="#fff" height="154" opacity=".952254" rx="20" width="168"/><path d="m0 116h168v18c0 11.045695-8.954305 20-20 20h-128c-11.045695 0-20-8.954305-20-20z" fill="url(#o)"/><rect fill="#fff" height="23" opacity=".403705" rx="3.5" width="7" x="81" y="124"/><circle cx="42.5" cy="42.5" fill="#e2e2e2" opacity=".504185" r="27.5"/><rect fill="#d8d8d8" height="8" opacity=".54269" rx="4" width="62" x="85.5908" y="26.86431"/><rect fill="#e2e2e2" height="50" opacity=".361217" rx="15" width="102.4092" x="46" y="51.135691"/></g></g><g transform="translate(365 387)"><path d="m100.712156 99.92939 40.29574-22.1647507-18.650364-64.3254407-46.1259618-5.96831096z" fill="url(#p)" opacity=".602779"/><g transform="matrix(.96592583 -.25881905 .25881905 .96592583 0 25.881905)"><rect fill="#fffefd" height="100" rx="32" width="100"/><g transform="translate(23 24)"><path d="m42.4732298 8.24603003h5.0267702c4.1421356 0 7.5 3.35786437 7.5 7.49999997v20.25397c0 8.2842712-6.7157288 15-15 15h-25c-8.28427125 0-15-6.7157288-15-15v-20.25397c0-4.1421356 3.35786438-7.49999997 7.5-7.49999997h5.0267702l3.1516118-5.67391362c.8817933-1.58751126 2.5549991-2.57211641 4.3709703-2.57211641h7.4506477 7.4506477c1.8159712 0 3.489177.98460515 4.3709703 2.57211641z" fill="url(#q)"/><circle cx="28.5" cy="28.5" r="11.5" stroke="#fff" stroke-linecap="round" stroke-linejoin="round" stroke-width="4.545455"/></g></g></g><g transform="matrix(.96592583 -.25881905 .25881905 .96592583 874 317.470095)"><rect fill="#78dfff" height="88" rx="44" width="110"/><g fill="#fff"><rect height="8" rx="4" width="43" x="37.292893" y="22.775255"/><rect height="8" rx="4" width="43" x="36.775255" y="39.707107"/><rect height="8" rx="4" width="43" x="36.257617" y="56.638959"/></g></g><g transform="translate(725 588)"><path d="m153.181848 91.6556518 37.484026 35.8858932v-103.7033388l-37.484026-23.20358709z" fill="url(#r)" opacity=".602779"/><rect fill="url(#s)" height="100" rx="20" width="168"/><g fill="#ffbf16"><rect height="8" opacity=".503717" rx="4" width="120" x="24" y="30"/><rect height="8" rx="4" width="79" x="24" y="30"/><rect height="8" opacity=".503717" rx="4" width="120" x="24" y="62"/><rect height="8" rx="4" width="82" x="62" y="62"/></g><circle cx="103" cy="34" fill="#fff" opacity=".903583" r="8"/><circle cx="67" cy="66" fill="#fff" opacity=".903583" r="8"/></g><g transform="translate(648 768)"><path d="m48.7193517 107.375807 66.8865293 34.15589 27.319144-102.8239809-66.1018678-36.51897524z" fill="url(#t)" opacity=".602779"/><circle cx="58" cy="58" fill="#fffefd" opacity=".384654" r="58"/><circle cx="58" cy="58" fill="url(#u)" r="47"/><path d="m74.0056125 63.7934772-18.5847332 11.4367589c-2.8221474 1.7367061-6.5178283.8567821-8.2545344-1.9653654-.5819361-.9456461-.8900501-2.0342258-.8900501-3.1445845v-22.8735177c0-3.3137085 2.6862915-6 6-6 1.1103586 0 2.1989384.308114 3.1445845.8900501l18.5847332 11.4367588c2.8221474 1.7367061 3.7020714 5.4323871 1.9653653 8.2545345-.4922601.7999227-1.1654427 1.4731052-1.9653653 1.9653653z" fill="#fff"/></g></g></svg>