<svg height="144" viewBox="0 0 144 144" width="144" xmlns="http://www.w3.org/2000/svg" xmlns:xlink="http://www.w3.org/1999/xlink"><linearGradient id="a" x1="50%" x2="-9.055038%" y1="0%" y2="100%"><stop offset="0" stop-color="#f4f4f4"/><stop offset="1" stop-color="#fff"/></linearGradient><path d="m52.8 9.6c-2.6509668 0-4.8-2.1490332-4.8-4.8s2.1490332-4.8 4.8-4.8 4.8 2.1490332 4.8 4.8-2.1490332 4.8-4.8 4.8zm57.6 0c-2.650967 0-4.8-2.1490332-4.8-4.8s2.149033-4.8 4.8-4.8 4.8 2.1490332 4.8 4.8-2.149033 4.8-4.8 4.8zm57.6 0c-2.650967 0-4.8-2.1490332-4.8-4.8s2.149033-4.8 4.8-4.8 4.8 2.1490332 4.8 4.8-2.149033 4.8-4.8 4.8zm-96 0c-2.6509668 0-4.8-2.1490332-4.8-4.8s2.1490332-4.8 4.8-4.8 4.8 2.1490332 4.8 4.8-2.1490332 4.8-4.8 4.8zm57.6 0c-2.650967 0-4.8-2.1490332-4.8-4.8s2.149033-4.8 4.8-4.8 4.8 2.1490332 4.8 4.8-2.149033 4.8-4.8 4.8zm57.6 0c-2.650967 0-4.8-2.1490332-4.8-4.8s2.149033-4.8 4.8-4.8 4.8 2.1490332 4.8 4.8-2.149033 4.8-4.8 4.8zm-96 0c-2.6509668 0-4.8-2.1490332-4.8-4.8s2.1490332-4.8 4.8-4.8 4.8 2.1490332 4.8 4.8-2.1490332 4.8-4.8 4.8zm57.6 0c-2.650967 0-4.8-2.1490332-4.8-4.8s2.149033-4.8 4.8-4.8 4.8 2.1490332 4.8 4.8-2.149033 4.8-4.8 4.8zm-96 19.2c-2.6509668 0-4.8-2.1490332-4.8-4.8s2.1490332-4.8 4.8-4.8 4.8 2.1490332 4.8 4.8-2.1490332 4.8-4.8 4.8zm57.6 0c-2.650967 0-4.8-2.1490332-4.8-4.8s2.149033-4.8 4.8-4.8 4.8 2.1490332 4.8 4.8-2.149033 4.8-4.8 4.8zm57.6 0c-2.650967 0-4.8-2.1490332-4.8-4.8s2.149033-4.8 4.8-4.8 4.8 2.1490332 4.8 4.8-2.149033 4.8-4.8 4.8zm-96 0c-2.6509668 0-4.8-2.1490332-4.8-4.8s2.1490332-4.8 4.8-4.8 4.8 2.1490332 4.8 4.8-2.1490332 4.8-4.8 4.8zm57.6 0c-2.650967 0-4.8-2.1490332-4.8-4.8s2.149033-4.8 4.8-4.8 4.8 2.1490332 4.8 4.8-2.149033 4.8-4.8 4.8zm57.6 0c-2.650967 0-4.8-2.1490332-4.8-4.8s2.149033-4.8 4.8-4.8 4.8 2.1490332 4.8 4.8-2.149033 4.8-4.8 4.8zm-96 0c-2.6509668 0-4.8-2.1490332-4.8-4.8s2.1490332-4.8 4.8-4.8 4.8 2.1490332 4.8 4.8-2.1490332 4.8-4.8 4.8zm57.6 0c-2.650967 0-4.8-2.1490332-4.8-4.8s2.149033-4.8 4.8-4.8 4.8 2.1490332 4.8 4.8-2.149033 4.8-4.8 4.8zm-96 76.8c-2.6509668 0-4.8-2.149033-4.8-4.8 0-2.6509668 2.1490332-4.8 4.8-4.8s4.8 2.1490332 4.8 4.8c0 2.650967-2.1490332 4.8-4.8 4.8zm57.6 0c-2.650967 0-4.8-2.149033-4.8-4.8 0-2.6509668 2.149033-4.8 4.8-4.8s4.8 2.1490332 4.8 4.8c0 2.650967-2.149033 4.8-4.8 4.8zm57.6 0c-2.650967 0-4.8-2.149033-4.8-4.8 0-2.6509668 2.149033-4.8 4.8-4.8s4.8 2.1490332 4.8 4.8c0 2.650967-2.149033 4.8-4.8 4.8zm-96 0c-2.6509668 0-4.8-2.149033-4.8-4.8 0-2.6509668 2.1490332-4.8 4.8-4.8s4.8 2.1490332 4.8 4.8c0 2.650967-2.1490332 4.8-4.8 4.8zm57.6 0c-2.650967 0-4.8-2.149033-4.8-4.8 0-2.6509668 2.149033-4.8 4.8-4.8s4.8 2.1490332 4.8 4.8c0 2.650967-2.149033 4.8-4.8 4.8zm57.6 0c-2.650967 0-4.8-2.149033-4.8-4.8 0-2.6509668 2.149033-4.8 4.8-4.8s4.8 2.1490332 4.8 4.8c0 2.650967-2.149033 4.8-4.8 4.8zm-96 0c-2.6509668 0-4.8-2.149033-4.8-4.8 0-2.6509668 2.1490332-4.8 4.8-4.8s4.8 2.1490332 4.8 4.8c0 2.650967-2.1490332 4.8-4.8 4.8zm57.6 0c-2.650967 0-4.8-2.149033-4.8-4.8 0-2.6509668 2.149033-4.8 4.8-4.8s4.8 2.1490332 4.8 4.8c0 2.650967-2.149033 4.8-4.8 4.8zm-96-57.6c-2.6509668 0-4.8-2.1490332-4.8-4.8s2.1490332-4.8 4.8-4.8 4.8 2.1490332 4.8 4.8-2.1490332 4.8-4.8 4.8zm57.6 0c-2.650967 0-4.8-2.1490332-4.8-4.8s2.149033-4.8 4.8-4.8 4.8 2.1490332 4.8 4.8-2.149033 4.8-4.8 4.8zm57.6 0c-2.650967 0-4.8-2.1490332-4.8-4.8s2.149033-4.8 4.8-4.8 4.8 2.1490332 4.8 4.8-2.149033 4.8-4.8 4.8zm-96 0c-2.6509668 0-4.8-2.1490332-4.8-4.8s2.1490332-4.8 4.8-4.8 4.8 2.1490332 4.8 4.8-2.1490332 4.8-4.8 4.8zm57.6 0c-2.650967 0-4.8-2.1490332-4.8-4.8s2.149033-4.8 4.8-4.8 4.8 2.1490332 4.8 4.8-2.149033 4.8-4.8 4.8zm57.6 0c-2.650967 0-4.8-2.1490332-4.8-4.8s2.149033-4.8 4.8-4.8 4.8 2.1490332 4.8 4.8-2.149033 4.8-4.8 4.8zm-96 0c-2.6509668 0-4.8-2.1490332-4.8-4.8s2.1490332-4.8 4.8-4.8 4.8 2.1490332 4.8 4.8-2.1490332 4.8-4.8 4.8zm57.6 0c-2.650967 0-4.8-2.1490332-4.8-4.8s2.149033-4.8 4.8-4.8 4.8 2.1490332 4.8 4.8-2.149033 4.8-4.8 4.8zm-96 76.8c-2.6509668 0-4.8-2.149033-4.8-4.8s2.1490332-4.8 4.8-4.8 4.8 2.149033 4.8 4.8-2.1490332 4.8-4.8 4.8zm57.6 0c-2.650967 0-4.8-2.149033-4.8-4.8s2.149033-4.8 4.8-4.8 4.8 2.149033 4.8 4.8-2.149033 4.8-4.8 4.8zm57.6 0c-2.650967 0-4.8-2.149033-4.8-4.8s2.149033-4.8 4.8-4.8 4.8 2.149033 4.8 4.8-2.149033 4.8-4.8 4.8zm-96 0c-2.6509668 0-4.8-2.149033-4.8-4.8s2.1490332-4.8 4.8-4.8 4.8 2.149033 4.8 4.8-2.1490332 4.8-4.8 4.8zm57.6 0c-2.650967 0-4.8-2.149033-4.8-4.8s2.149033-4.8 4.8-4.8 4.8 2.149033 4.8 4.8-2.149033 4.8-4.8 4.8zm57.6 0c-2.650967 0-4.8-2.149033-4.8-4.8s2.149033-4.8 4.8-4.8 4.8 2.149033 4.8 4.8-2.149033 4.8-4.8 4.8zm-96 0c-2.6509668 0-4.8-2.149033-4.8-4.8s2.1490332-4.8 4.8-4.8 4.8 2.149033 4.8 4.8-2.1490332 4.8-4.8 4.8zm57.6 0c-2.650967 0-4.8-2.149033-4.8-4.8s2.149033-4.8 4.8-4.8 4.8 2.149033 4.8 4.8-2.149033 4.8-4.8 4.8zm-96-57.6c-2.6509668 0-4.8-2.1490332-4.8-4.8s2.1490332-4.8 4.8-4.8 4.8 2.1490332 4.8 4.8-2.1490332 4.8-4.8 4.8zm57.6 0c-2.650967 0-4.8-2.1490332-4.8-4.8s2.149033-4.8 4.8-4.8 4.8 2.1490332 4.8 4.8-2.149033 4.8-4.8 4.8zm57.6 0c-2.650967 0-4.8-2.1490332-4.8-4.8s2.149033-4.8 4.8-4.8 4.8 2.1490332 4.8 4.8-2.149033 4.8-4.8 4.8zm-96 0c-2.6509668 0-4.8-2.1490332-4.8-4.8s2.1490332-4.8 4.8-4.8 4.8 2.1490332 4.8 4.8-2.1490332 4.8-4.8 4.8zm57.6 0c-2.650967 0-4.8-2.1490332-4.8-4.8s2.149033-4.8 4.8-4.8 4.8 2.1490332 4.8 4.8-2.149033 4.8-4.8 4.8zm57.6 0c-2.650967 0-4.8-2.1490332-4.8-4.8s2.149033-4.8 4.8-4.8 4.8 2.1490332 4.8 4.8-2.149033 4.8-4.8 4.8zm-96 0c-2.6509668 0-4.8-2.1490332-4.8-4.8s2.1490332-4.8 4.8-4.8 4.8 2.1490332 4.8 4.8-2.1490332 4.8-4.8 4.8zm57.6 0c-2.650967 0-4.8-2.1490332-4.8-4.8s2.149033-4.8 4.8-4.8 4.8 2.1490332 4.8 4.8-2.149033 4.8-4.8 4.8zm-96 76.8c-2.6509668 0-4.8-2.149033-4.8-4.8s2.1490332-4.8 4.8-4.8 4.8 2.149033 4.8 4.8-2.1490332 4.8-4.8 4.8zm57.6 0c-2.650967 0-4.8-2.149033-4.8-4.8s2.149033-4.8 4.8-4.8 4.8 2.149033 4.8 4.8-2.149033 4.8-4.8 4.8zm57.6 0c-2.650967 0-4.8-2.149033-4.8-4.8s2.149033-4.8 4.8-4.8 4.8 2.149033 4.8 4.8-2.149033 4.8-4.8 4.8zm-96 0c-2.6509668 0-4.8-2.149033-4.8-4.8s2.1490332-4.8 4.8-4.8 4.8 2.149033 4.8 4.8-2.1490332 4.8-4.8 4.8zm57.6 0c-2.650967 0-4.8-2.149033-4.8-4.8s2.149033-4.8 4.8-4.8 4.8 2.149033 4.8 4.8-2.149033 4.8-4.8 4.8zm57.6 0c-2.650967 0-4.8-2.149033-4.8-4.8s2.149033-4.8 4.8-4.8 4.8 2.149033 4.8 4.8-2.149033 4.8-4.8 4.8zm-96 0c-2.6509668 0-4.8-2.149033-4.8-4.8s2.1490332-4.8 4.8-4.8 4.8 2.149033 4.8 4.8-2.1490332 4.8-4.8 4.8zm57.6 0c-2.650967 0-4.8-2.149033-4.8-4.8s2.149033-4.8 4.8-4.8 4.8 2.149033 4.8 4.8-2.149033 4.8-4.8 4.8zm-96-57.6c-2.6509668 0-4.8-2.1490332-4.8-4.8s2.1490332-4.8 4.8-4.8 4.8 2.1490332 4.8 4.8-2.1490332 4.8-4.8 4.8zm57.6 0c-2.650967 0-4.8-2.1490332-4.8-4.8s2.149033-4.8 4.8-4.8 4.8 2.1490332 4.8 4.8-2.149033 4.8-4.8 4.8zm57.6 0c-2.650967 0-4.8-2.1490332-4.8-4.8s2.149033-4.8 4.8-4.8 4.8 2.1490332 4.8 4.8-2.149033 4.8-4.8 4.8zm-96 0c-2.6509668 0-4.8-2.1490332-4.8-4.8s2.1490332-4.8 4.8-4.8 4.8 2.1490332 4.8 4.8-2.1490332 4.8-4.8 4.8zm57.6 0c-2.650967 0-4.8-2.1490332-4.8-4.8s2.149033-4.8 4.8-4.8 4.8 2.1490332 4.8 4.8-2.149033 4.8-4.8 4.8zm57.6 0c-2.650967 0-4.8-2.1490332-4.8-4.8s2.149033-4.8 4.8-4.8 4.8 2.1490332 4.8 4.8-2.149033 4.8-4.8 4.8zm-96 0c-2.6509668 0-4.8-2.1490332-4.8-4.8s2.1490332-4.8 4.8-4.8 4.8 2.1490332 4.8 4.8-2.1490332 4.8-4.8 4.8zm57.6 0c-2.650967 0-4.8-2.1490332-4.8-4.8s2.149033-4.8 4.8-4.8 4.8 2.1490332 4.8 4.8-2.149033 4.8-4.8 4.8z" fill="url(#a)" fill-rule="evenodd" transform="translate(-48)"/></svg>