<svg height="85" viewBox="0 0 190 85" width="190" xmlns="http://www.w3.org/2000/svg"><g fill="none" fill-rule="evenodd" transform="translate(0 4)"><path d="m46.2576556.06802388h-32.1821436c-7.66651086 0-13.9048803 6.22791573-13.9048803 13.88227812v32.1293314c0 7.6541461 6.23836944 13.8822781 13.9048803 13.8822781h32.1821436c7.6667275 0 13.905097-6.228132 13.905097-13.8822781v-32.1293314c0-7.65436239-6.2383695-13.88227812-13.905097-13.88227812z" fill="#c9191d"/><g fill="#fff"><path d="m20.9546169 11.3177455c.6629418.7520478.5628506 1.3635056.1644356 2.2717163-.3986317.908427-1.8939339 3.485764-4.4404105 5.7382303-2.5698746 2.2732304-4.9140023 3.5192894-5.8934664 3.9326236-.97946408.4135506-1.57329533.3006461-2.23623717-.4514017l-.80029647-.907778c-.6627252-.7520478-.7363854-1.7692697-.16421893-2.2717163 0 0 3.88795897-2.5319158 5.58496007-4.0202219 1.6970012-1.4880899 4.7487001-5.65063207 4.7487001-5.65063207.5721665-.50266292 1.573512-.30064607 2.2362372.45140167zm-.0301574 10.8199924-.8122121-.9209719c-.672691-.7630786-1.6933181-.9625-2.2821664-.4455618 0 0-3.1450742 4.2665787-4.8895211 5.7951152-1.7433638 1.5294017-5.73293048 4.1374522-5.73293048 4.1374522-.5886317.5171545-.51973774 1.554059.15295325 2.3169214l.81134549.9211882c.67247435.7628623 1.2790878.8740365 2.28281644.4453455.5312201-.2268905 1.470821-.7139804 2.6160205-1.4513202v15.7099466c0 .9397893.7056214 1.7017865 1.5763284 1.7017865h1.3793957c.8707069 0 1.5763284-.7619972 1.5763284-1.7017865v-19.4113539c1.9236146-1.9965927 3.1253591-3.9962135 3.4745952-4.7807051.4131471-.9287584.5188711-1.5531938-.1529533-2.3160562"/><path d="m51.820236 25.1007671h-15.4168643c-.0329304 0-.060228.0160057-.0922919.0179523-.0320638-.0019466-.0584949-.0179523-.0905587-.0179523h-3.1028278c-.566967 0-1.0273432-.4587556-1.0273432-1.0256573v-2.1501601c0-.5660365.4603762-1.0256573 1.0273432-1.0256573h3.1028278c.9415507 0 1.7045838-.7591854 1.7045838-1.6963792v-1.1309916c0-.9371938-.7630331-1.6972444-1.7045838-1.6972444h-3.1028278c-.566967 0-1.0273432-.4585393-1.0273432-1.0247921v-3.6786966c0-.9400056-.7604333-1.70286799-1.6991677-1.70286799h-1.1328506c-.9387343 0-1.7000342.76286239-1.7000342 1.70286799v3.6786966c0 .5662528-.459293 1.0247921-1.0264766 1.0247921h-3.2440821c-.9415508 0-1.7056671.7600506-1.7056671 1.6972444v1.1309916c0 .9371938.7641163 1.6963792 1.7056671 1.6963792h3.2440821c.5671836 0 1.0264766.4596208 1.0264766 1.0256573v2.1501601c0 .5669017-.459293 1.0256573-1.0264766 1.0256573h-3.2440821c-.9415508 0-1.7056671.7600506-1.7056671 1.696163v1.1322893c0 .9361123.7641163 1.6961629 1.7056671 1.6961629h3.2440821c.5671836 0 1.0264766.4587556 1.0264766 1.0256573v1.9373287c0 .5660365-.459293 1.0256573-1.0264766 1.0256573h-3.2440821c-.9415508 0-1.7056671.7591854-1.7056671 1.6963792v1.1309915c0 .9371939.7641163 1.6972444 1.7056671 1.6972444h3.2440821c.5671836 0 1.0264766.4585394 1.0264766 1.0247922v3.7727837c0 .4862247-.3394869.9034522-.8150285 1.0042444-2.8424173.599778-5.6885177 1.1638679-5.6885177 1.1638679-.9454504.2392191-1.5124173 1.2207528-1.2660889 2.1927697l.2981072 1.1733848c.2463284.9720169.824561 1.3176517 2.1584606 1.3260871 1.3338997.0095169 3.1981528-.208073 7.4537629-1.2968876 4.2176967-1.0784326 6.8525655-2.8846882 7.8666932-3.5742276 1.0132611-.6884578 1.5113341-1.2205365 1.2650057-2.1925533l-.2981072-1.1725197c-.2461117-.9720169-1.2121436-1.5663876-2.1573774-1.3271685 0 0-1.2377081.616-2.833968 1.3336573-.6791905.3060533-1.4508894-.1901208-1.4508894-.9341658v-1.4692724c0-.5662528.4603762-1.0247922 1.0273432-1.0247922h3.1028278c.9415507 0 1.7045838-.7600505 1.7045838-1.6972444v-1.1309915c0-.9371938-.7630331-1.6963792-1.7045838-1.6963792h-3.1028278c-.566967 0-1.0273432-.4596208-1.0273432-1.0256573v-1.9373287c0-.5669017.4603762-1.0256573 1.0273432-1.0256573h3.1028278c.0320638 0 .0584949-.0160056.0905587-.0179522.0320639.0019466.0593615.0179522.0922919.0179522h3.8359635c.5782326 0 1.0470582.4680562 1.0470582 1.0444747v17.9758231c0 .9400056.7056214 1.7020028 1.5754618 1.7020028h1.3802622c.870707 0 1.5763284-.7619972 1.5763284-1.7020028v-17.9758231c0-.5764185.467959-1.0444747 1.0461916-1.0444747h4.9555986c.9415508 0 1.7056671-.7600506 1.7056671-1.6961629v-1.1322893c0-.9361124-.7641163-1.696163-1.7056671-1.696163"/><path d="m43.559699 15.9285315c-1.0737058 0-1.9441961-.8690618-1.9441961-1.9410057 0-1.0719438.8704903-1.9410056 1.9441961-1.9410056s1.9441961.8690618 1.9441961 1.9410056c0 1.0719439-.8704903 1.9410057-1.9441961 1.9410057m.2441619-6.20866577c-.0834094-.00454213-.1618358.01189607-.2441619.01211236-.0823261-.00021629-.1607526-.01665449-.2441619-.01211236-2.5479932.13821067-4.2142304 2.52348037-3.7874345 5.16181177.4189966 2.5918287 3.4856443 7.9818287 3.4856443 7.9818287.1065906.2327303.3269213.3441208.5459521.3404438.2190308.003677.4393614-.1077135.5459521-.3404438 0 0 3.0666476-5.39 3.4856442-7.9818287.4267959-2.6383314-1.2394413-5.0236011-3.7874344-5.16181177"/></g><path d="m97.8586226 42.8524683.0266476-23.0121854c.0008666-1.0148427-.6055302-1.6217585-1.6222577-1.6241377l-22.8597947-.0261713c-.5219042 0-.9292018.1475112-1.2108438.4373427-.2716762.2796657-.4103307.6774269-.4114139 1.1826854l-.026431 23.0119691c-.0010833 1.060264.5600342 1.6219747 1.6229076 1.6243539l22.8591448.0261713c.5028393 0 .8995211-.1371292 1.1809464-.4079269.2913911-.2809635.4400114-.6888905.4410947-1.2121011zm.3104561-29.4827809c3.1673893.0034606 4.7738313 1.6113764 4.7703653 4.7735674l-.030764 26.417705c-.00455 3.2106405-1.614025 4.7657809-4.7814143 4.7625365l-26.6563284-.0309297c-3.2170012-.0032444-4.7749145-1.562927-4.7703649-4.7735674l.030764-26.4174888c.0034663-3.162191 1.5644127-4.7659972 4.7814139-4.7625365zm-25.6468153 62.7343008c-.6512429.5783652-1.6359065.8675478-2.9539909.8675478-1.4762372 0-2.7652907-.6495253-3.8948917-1.9808034-.318472-.3471489-.4634093-.6646657-.4634093-.9387079 0-.2316489.0721437-.4492387.2458951-.6363314.1596693-.17325.3622349-.2755562.6087799-.2755562.2896579 0 .535553.1302078.7671494.3618567.6083466.678941.9987457 1.0985478 1.2021779 1.2573062.5065222.4196067 1.0427252.6224888 1.5921436.6224888.7677994 0 1.3040023-.1734663 1.6220411-.5203989.3041733-.3469326.4631927-.8969635.4631927-1.6769129v-5.3644776c0-.2595505.0877423-.476059.2612771-.6495252.1739681-.1600562.3908324-.2461405.6655416-.2461405.2612771 0 .4781414.0860843.6518928.2461405.1737514.1734662.2608438.3899747.2608438.6495252v5.4224439c0 1.300132-.3477195 2.2550618-1.0286431 2.8615449zm15.093821.6079107c-.2027822.1734663-.4343786.2595505-.6661916.2595505-.318472 0-.5790992-.1438342-.7677993-.4180927l-3.3736374-4.7136545-1.6655872 1.2438961v2.9924017c0 .2593343-.0862258.4773567-.2458951.649309-.1735348.1600562-.3912657.2461404-.6371608.2461404-.2894413 0-.5210376-.0860842-.6950057-.2461404-.1737514-.1719523-.2606271-.3752669-.2606271-.649309v-8.2558708c0-.2597668.0727936-.4626489.246545-.6348174.1590194-.1749803.3615849-.2610646.6224287-.2610646.2747093 0 .5063056.0860843.6950057.2314326.1737515.1734663.2747093.3899747.2747093.6644494v3.0068933l4.9529988-3.7290927c.1739681-.1306405.3618016-.2033146.5496352-.2033146.246545 0 .4634093.1023061.6518928.2759887.173968.1868764.2749259.4046826.2749259.6642332 0 .2891826-.1299886.5203989-.3618016.6938651l-2.9396922 2.2271602 3.4468643 4.8276404c.1159065.1736826.1878336.3471489.1878336.5072051 0 .2446264-.1016078.4477247-.2894413.621191zm10.3958164-7.1422908c-.5212543-.6938651-1.2452908-1.0407977-2.2011403-1.0407977-.9556328 0-1.6944013.3469326-2.2158722 1.0407977-.4774915.6358989-.7090878 1.4322866-.7090878 2.4138203 0 .9698539.2315963 1.7498033.7240364 2.3575842.5212543.6644495 1.2593729.9964579 2.2009236.9964579.9558495 0 1.679886-.3320084 2.1864083-.9964579.4491106-.593073.6809236-1.3730224.6809236-2.3575842 0-.9815337-.231813-1.7911152-.6661916-2.4138203zm1.3321665 5.9858849c-.8109122.9387078-1.9840593 1.4160646-3.5183581 1.4160646-1.5059179 0-2.6792816-.4773568-3.5333067-1.4309888-.8256442-.9105899-1.2312087-2.1248539-1.2312087-3.6430084 0-1.4740309.4055645-2.660177 1.2455075-3.5705506.8544583-.9400056 2.01309-1.4175786 3.4752451-1.4175786 1.4337742 0 2.5921893.477573 3.4611631 1.4322865.8249945.9252977 1.2446405 2.1101461 1.2446405 3.5558427 0 1.5611966-.390615 2.775677-1.1436827 3.6579326zm11.8281177-6.34772c-.246545-.2742584-.565017-.418309-.941551-.418309h-3.344607c-.347502 0-.521254.2165085-.521254.6495253v2.2567922h3.865861c.376534 0 .695006-.1453484.941551-.4345309.231813-.2889663.361801-.621191.361801-1.0258736 0-.390191-.129988-.7369073-.361801-1.027604zm1.302702 3.2249158c-.579316.6064831-1.302702.9103736-2.157377.9103736h-3.952737v2.8040112c0 .5500309-.319339.8245056-.926819.8245056-.60878 0-.91252-.2891826-.91252-.8379157v-7.5323736c0-.4477247.159453-.8095815.492224-1.069132.289658-.2312163.680274-.3616405 1.143683-.3616405h4.286157c.840593 0 1.535599.3025927 2.085234.8807416.535986.6079972.810912 1.3314944.810912 2.1694101 0 .8671152-.289658 1.6042388-.868757 2.2120197zm8.232871-3.0069149-1.810308 3.787059h3.634265zm4.908586 7.271309c-.231813.1881741-.491573.2891825-.782748.2891825-.375667 0-.635644-.1881741-.810695-.563441l-.738119-1.576337h-5.140399l-.738118 1.576337c-.173752.3752669-.46341.563441-.840593.563441-.289658 0-.536203-.1010084-.753068-.2891825-.231596-.2028821-.332554-.4193905-.332554-.7085731 0-.1438342.029464-.3038904.11569-.4626488l4.112623-8.0663989c.173751-.3616405.506522-.5500309.999395-.5500309.49179 0 .825861.1883904 1.013045.5500309l4.098974 8.0663989c.086225.1587584.129338.3188146.129338.4626488 0 .2891826-.115906.505691-.332771.7085731zm11.507111-8.3848891-3.707058 4.8278568v2.9210252c0 .2742585-.086226.4922809-.261277.6642332-.172452.1600562-.375884.2461404-.635861.2461404-.276009 0-.492874-.0860842-.666842-.2461404-.173751-.1719523-.25976-.3899747-.25976-.6642332v-2.9210252l-3.707275-4.8278568c-.145371-.1734663-.203216-.3469326-.203216-.535323 0-.2446264.100958-.4477247.319339-.621191.201916-.1587585.448461-.2461405.708438-.2461405.261277 0 .478141.1304242.666841.3765646l3.127743 4.2938315 3.11301-4.2938315c.173751-.2461404.405348-.3765646.665325-.3765646.261277 0 .49309.087382.709954.2461405.203216.1734663.319122.3765646.319122.621191 0 .1883904-.072577.3618567-.188483.535323zm-9.658586-30.0653421c.180684-.0886798.316522-.1334523.49634-.224295 2.888563-1.4372612 5.416408-3.1457528 7.674093-5.1233118 1.7152-1.5289691 2.708746-2.8338595 2.890513-3.8246938.000867-.2251601-.270593-.3596938-.720786-.3607753l-21.107982-.024441c.045929.0897613.089692.1795225.134538.1795225.451277.4963905.855758.946927 1.171197 1.3077023 2.342395 2.883823 5.270605 5.4546713 8.830992 7.710382.180684.1345337.406431.2701488.631095.3599101zm61.860923-21.2699523c.406215.2701489.629795.9447641.628712 1.9805871-.000867.8104466-.136705 1.3955169-.362235 1.6665309-.406431.5394326-1.038609.7635113-1.94008.7626461l-3.518574-.0041096-.027515 23.7746152c-.001083 1.0805955-.498289 1.9805871-1.400843 2.7004073-.812646.5839888-2.120764.9875899-3.925006 1.1660309-1.804025-.0019466-35.423193 2.0549916-51.45642-5.5535169-3.429532 1.4372613-7.399384 2.9186461-12.00228 4.3995984-2.571825.762646-4.555884 1.1643005-5.909715 1.2538455-.72187-.0010815-1.351882-.2720955-1.803159-.7228483-.450194-.4514017-.67594-.946927-.674857-1.3963821.000866-1.0356067.272543-1.7562921.90472-2.115337 5.729031-1.5237781 10.512612-3.0049467 14.391471-4.4413427-2.523078-1.8032276-5.180912-4.1926068-7.973284-7.2587641-1.171197-1.2172921-1.757229-2.1631376-1.801208-2.883823.001083-.6759129.181767-1.2151292.588198-1.6198118l-2.028905-.0019466c-.857708-.0010815-1.398894-.1825506-1.624424-.6330871-.359419-.3609916-.494174-.9012894-.49309-1.6217585.000866-.6759129.18155-1.2162106.587981-1.6198118.360502-.3149213.857708-.4944438 1.534732-.4933623l13.755394.0153567.006066-5.9889129-15.154287-.0173034c-.766716-.0010814-1.351882-.1814691-1.75723-.5422443-.361368-.3151377-.539886-.9010731-.539019-1.7575899.000867-.7652416.181767-1.3494467.543136-1.7543455.405347-.3596939.992463-.539 1.759179-.5381349l15.154504.0175197.004116-3.87271068c.000867-.63114045.226613-1.21491292.72382-1.75521067.315439-.31513764.9474-.49444382 1.94008-.49357866.857491.00108147 1.487503.18255057 1.848004.49747191.496123.45161798.765633 1.03668821.764766 1.7573736l-.004116 3.8727107 15.876158.0183848c.811778.0008652 1.396727.1812528 1.757229.5422444.361585.271014.540102.8563005.539019 1.7562921-.000866.7206854-.180684 1.2162107-.452144 1.5750393-.406431.495309-1.038392.719604-1.850387.7185225l-15.875941-.0181685-.006283 5.9884803 9.696933.0114635c1.623341.0917079 2.704846.273177 3.291961.5891798.990297.6320056 1.485553 1.5778511 1.48447 2.9285955-.136921 1.396382-.905804 3.105955-2.351494 5.1304494-2.031938 2.5647922-4.831459 4.9928877-8.397046 7.2405955-.361585.224295-.72187.4036011-1.037309.5831236 5.412075 2.0960871 13.52228 3.0378231 21.420171 3.4128736l.017548-14.5097416c-.090775.0906264-.135838.1803877-.181767.2699326-.542053.7198203-1.217994 1.0338764-2.120764 1.032795-.856625-.0010815-1.578495-.2264579-2.118381-.7217669-.49634-.4068455-.71992-.9919157-.719054-1.7126011 0-.4505365.225747-.9447641.588199-1.4850618 3.388802-5.4903596 5.965826-11.250868 7.731288-17.32716292.316522-.80936517.858791-1.30467416 1.580661-1.4383427.811779.00108146 1.533649.1814691 2.073752.45161798.586032.31708427.901471.94692696.900604 1.84800004-.090992.6748314-.181767 1.3057556-.318689 1.8908258-.588198 2.2498708-1.402793 4.6362219-2.488198 7.1560253l-.029247 24.7122416c10.009772.2119662 18.622166-.3304944 19.394298-.3300618.451277.0010814.676808-.2240787.676808-.6748315l.025564-22.018323-14.432417-.0162219c-.720787-.0010815-1.261973-.1814692-1.667321-.5422444-.451277-.3609916-.630011-.9908343-.628928-1.8919073.000867-.9908343.181768-1.6656658.633045-2.0255759.315439-.2699326.857708-.4485899 1.669487-.4475084l14.432417.0162219.006066-5.9886966c.00195-1.30575564.860741-2.02557587 2.484082-2.11317418 1.623558.00216292 2.434253.72392977 2.47715 2.11923038l-.006067 5.9889129 3.518358.0041095c.720787.0010815 1.307036.1803877 1.667537.4974719zm-19.237619 20.8245852c-.269509-.1356152-.450194-.4057641-.630878-.7665394-1.033409-2.1172837-2.744709-5.3160281-5.084937-9.5514606-.224447-.3609916-.359418-.7209017-.359418-1.1714383.001083-.2699325.045929-.5402977.180684-.8999915.226613-.4057641.588198-.719604 1.084538-.9897528.361368-.1336686.766716-.224295 1.217993-.2234298.631961.0908427 1.217127.3162191 1.758313.6780758.94545.9916995 2.251402 3.0642107 3.87171 6.3079439.899521 1.9814522 1.393694 3.6042921 1.391744 4.9550365 0 .6298427-.181767 1.0345253-.497206 1.3048904-.45236.4505365-1.038392.6287613-1.805108.6276798-.541186-.0008652-.901688-.0906264-1.127435-.271014z" fill="#333"/></g></svg>