<svg xmlns="http://www.w3.org/2000/svg" width="190" height="77" viewBox="0 0 190 77">
  <g fill="none" fill-rule="evenodd">
    <path fill="#C9191D" fill-rule="nonzero" d="M20.9546169 11.3177455C21.6175587 12.0697933 21.5174675 12.6812511 21.1190525 13.5894618 20.7204208 14.4978888 19.2251186 17.0752258 16.678642 19.3276921 14.1087674 21.6009225 11.7646397 22.8469815 10.7851756 23.2603157 9.80571152 23.6738663 9.21188027 23.5609618 8.54893843 22.808914L7.74864196 21.901136C7.08591676 21.1490882 7.01225656 20.1318663 7.58442303 19.6294197 7.58442303 19.6294197 11.472382 17.0975039 13.1693831 15.6091978 14.8663843 14.1211079 17.9180832 9.95856573 17.9180832 9.95856573 18.4902497 9.45590281 19.4915952 9.65791966 20.1543204 10.4099674L20.9546169 11.3177455zM20.9244595 22.1377379L20.1122474 21.216766C19.4395564 20.4536874 18.4189293 20.254266 17.830081 20.7712042 17.830081 20.7712042 14.6850068 25.0377829 12.9405599 26.5663194 11.1971961 28.0957211 7.20762942 30.7037716 7.20762942 30.7037716 6.61899772 31.2209261 6.68789168 32.2578306 7.36058267 33.020693L8.17192816 33.9418812C8.84440251 34.7047435 9.45101596 34.8159177 10.4547446 34.3872267 10.9859647 34.1603362 11.9255656 33.6732463 13.0707651 32.9359065L13.0707651 48.6458531C13.0707651 49.5856424 13.7763865 50.3476396 14.6470935 50.3476396L16.0264892 50.3476396C16.8971961 50.3476396 17.6028176 49.5856424 17.6028176 48.6458531L17.6028176 29.2344992C19.5264322 27.2379065 20.7281767 25.2382857 21.0774128 24.4537941 21.4905599 23.5250357 21.5962839 22.9006003 20.9244595 22.1377379"/>
    <path fill="#C9191D" fill-rule="nonzero" d="M51.820236,25.1007671 L36.4033717,25.1007671 C36.3704413,25.1007671 36.3431437,25.1167728 36.3110798,25.1187194 C36.279016,25.1167728 36.2525849,25.1007671 36.2205211,25.1007671 L33.1176933,25.1007671 C32.5507263,25.1007671 32.0903501,24.6420115 32.0903501,24.0751098 L32.0903501,21.9249497 C32.0903501,21.3589132 32.5507263,20.8992924 33.1176933,20.8992924 L36.2205211,20.8992924 C37.1620718,20.8992924 37.9251049,20.140107 37.9251049,19.2029132 L37.9251049,18.0719216 C37.9251049,17.1347278 37.1620718,16.3746772 36.2205211,16.3746772 L33.1176933,16.3746772 C32.5507263,16.3746772 32.0903501,15.9161379 32.0903501,15.3498851 L32.0903501,11.6711885 C32.0903501,10.7311829 31.3299168,9.96832051 30.3911824,9.96832051 L29.2583318,9.96832051 C28.3195975,9.96832051 27.5582976,10.7311829 27.5582976,11.6711885 L27.5582976,15.3498851 C27.5582976,15.9161379 27.0990046,16.3746772 26.531821,16.3746772 L23.2877389,16.3746772 C22.3461881,16.3746772 21.5820718,17.1347278 21.5820718,18.0719216 L21.5820718,19.2029132 C21.5820718,20.140107 22.3461881,20.8992924 23.2877389,20.8992924 L26.531821,20.8992924 C27.0990046,20.8992924 27.5582976,21.3589132 27.5582976,21.9249497 L27.5582976,24.0751098 C27.5582976,24.6420115 27.0990046,25.1007671 26.531821,25.1007671 L23.2877389,25.1007671 C22.3461881,25.1007671 21.5820718,25.8608177 21.5820718,26.7969301 L21.5820718,27.9292194 C21.5820718,28.8653317 22.3461881,29.6253823 23.2877389,29.6253823 L26.531821,29.6253823 C27.0990046,29.6253823 27.5582976,30.0841379 27.5582976,30.6510396 L27.5582976,32.5883683 C27.5582976,33.1544048 27.0990046,33.6140256 26.531821,33.6140256 L23.2877389,33.6140256 C22.3461881,33.6140256 21.5820718,34.373211 21.5820718,35.3104048 L21.5820718,36.4413963 C21.5820718,37.3785902 22.3461881,38.1386407 23.2877389,38.1386407 L26.531821,38.1386407 C27.0990046,38.1386407 27.5582976,38.5971801 27.5582976,39.1634329 L27.5582976,42.9362166 C27.5582976,43.4224413 27.2188107,43.8396688 26.7432691,43.940461 C23.9008518,44.540239 21.0547514,45.1043289 21.0547514,45.1043289 C20.109301,45.343548 19.5423341,46.3250817 19.7886625,47.2970986 L20.0867697,48.4704834 C20.3330981,49.4425003 20.9113307,49.7881351 22.2452303,49.7965705 C23.57913,49.8060874 25.4433831,49.5884975 29.6989932,48.4996829 C33.9166899,47.4212503 36.5515587,45.6149947 37.5656864,44.9254553 C38.5789475,44.2369975 39.0770205,43.7049188 38.8306921,42.732902 L38.5325849,41.5603823 C38.2864732,40.5883654 37.3204413,39.9939947 36.3752075,40.2332138 C36.3752075,40.2332138 35.1374994,40.8492138 33.5412395,41.5668711 C32.862049,41.8729244 32.0903501,41.3767503 32.0903501,40.6327053 L32.0903501,39.1634329 C32.0903501,38.5971801 32.5507263,38.1386407 33.1176933,38.1386407 L36.2205211,38.1386407 C37.1620718,38.1386407 37.9251049,37.3785902 37.9251049,36.4413963 L37.9251049,35.3104048 C37.9251049,34.373211 37.1620718,33.6140256 36.2205211,33.6140256 L33.1176933,33.6140256 C32.5507263,33.6140256 32.0903501,33.1544048 32.0903501,32.5883683 L32.0903501,30.6510396 C32.0903501,30.0841379 32.5507263,29.6253823 33.1176933,29.6253823 L36.2205211,29.6253823 C36.2525849,29.6253823 36.279016,29.6093767 36.3110798,29.6074301 C36.3431437,29.6093767 36.3704413,29.6253823 36.4033717,29.6253823 L40.2393352,29.6253823 C40.8175678,29.6253823 41.2863934,30.0934385 41.2863934,30.669857 L41.2863934,48.6456801 C41.2863934,49.5856857 41.9920148,50.3476829 42.8618552,50.3476829 L44.2421174,50.3476829 C45.1128244,50.3476829 45.8184458,49.5856857 45.8184458,48.6456801 L45.8184458,30.669857 C45.8184458,30.0934385 46.2864048,29.6253823 46.8646374,29.6253823 L51.820236,29.6253823 C52.7617868,29.6253823 53.5259031,28.8653317 53.5259031,27.9292194 L53.5259031,26.7969301 C53.5259031,25.8608177 52.7617868,25.1007671 51.820236,25.1007671"/>
    <path fill="#C9191D" fill-rule="nonzero" d="M43.559699,15.9285315 C42.4859932,15.9285315 41.6155029,15.0594697 41.6155029,13.9875258 C41.6155029,12.915582 42.4859932,12.0465202 43.559699,12.0465202 C44.6334048,12.0465202 45.5038951,12.915582 45.5038951,13.9875258 C45.5038951,15.0594697 44.6334048,15.9285315 43.559699,15.9285315 M43.8038609,9.71986573 C43.7204515,9.7153236 43.6420251,9.7317618 43.559699,9.73197809 C43.4773729,9.7317618 43.3989464,9.7153236 43.3155371,9.71986573 C40.7675439,9.8580764 39.1013067,12.2433461 39.5281026,14.8816775 C39.9470992,17.4735062 43.0137469,22.8635062 43.0137469,22.8635062 C43.1203375,23.0962365 43.3406682,23.207627 43.559699,23.20395 C43.7787298,23.207627 43.9990604,23.0962365 44.1056511,22.8635062 C44.1056511,22.8635062 47.1722987,17.4735062 47.5912953,14.8816775 C48.0180912,12.2433461 46.351854,9.8580764 43.8038609,9.71986573"/>
    <path fill="#C9191D" fill-rule="nonzero" d="M56.5432201 46.0796334C56.5432201 51.7417289 51.9292748 56.3481025 46.2578723 56.3481025L14.0757286 56.3481025C8.40410946 56.3481025 3.7897309 51.7417289 3.7897309 46.0796334L3.7897309 13.950302C3.7897309 8.28799017 8.40410946 3.68118399 14.0757286 3.68118399L46.2578723 3.68118399C51.9292748 3.68118399 56.5432201 8.28799017 56.5432201 13.950302L56.5432201 46.0796334zM46.2576556.0680238764L14.075512.0680238764C6.40900114.0680238764.170631699 6.29593961.170631699 13.950302L.170631699 46.0796334C.170631699 53.7337795 6.40900114 59.9619115 14.075512 59.9619115L46.2576556 59.9619115C53.9243831 59.9619115 60.1627526 53.7337795 60.1627526 46.0796334L60.1627526 13.950302C60.1627526 6.29593961 53.9243831.0680238764 46.2576556.0680238764zM97.8586226 42.8524683C97.8575393 43.3756789 97.708919 43.7836059 97.4175279 44.0645694 97.1361026 44.3353671 96.7394208 44.4724963 96.2365815 44.4724963L73.3774367 44.446325C72.3145633 44.4439458 71.7534458 43.8822351 71.7545291 42.8219711L71.7809601 19.810002C71.7820433 19.3047435 71.9206978 18.9069823 72.192374 18.6273166 72.474016 18.3374851 72.8813136 18.1899739 73.4032178 18.1899739L96.2630125 18.2161452C97.27974 18.2185244 97.8861368 18.8254402 97.8852702 19.8402829L97.8586226 42.8524683zM98.1690787 13.3696874L71.5127503 13.3389739C68.2957491 13.3355132 66.7348027 14.9393194 66.7313364 18.1015104L66.7005724 44.5189992C66.6960228 47.7296396 68.2539361 49.2893222 71.4709373 49.2925666L98.1272657 49.3234963C101.294655 49.3267407 102.90413 47.7716003 102.90868 44.5609598L102.939444 18.1432548C102.94291 14.9810638 101.336468 13.373148 98.1690787 13.3696874zM72.5222634 76.1039882C71.8710205 76.6823534 70.8863569 76.971536 69.5682725 76.971536 68.0920353 76.971536 66.8029818 76.3220107 65.6733808 74.9907326 65.3549088 74.6435837 65.2099715 74.3260669 65.2099715 74.0520247 65.2099715 73.8203758 65.2821152 73.602786 65.4558666 73.4156933 65.6155359 73.2424433 65.8181015 73.1401371 66.0646465 73.1401371 66.3543044 73.1401371 66.6001995 73.2703449 66.8317959 73.5019938 67.4401425 74.1809348 67.8305416 74.6005416 68.0339738 74.7593 68.540496 75.1789067 69.076699 75.3817888 69.6261174 75.3817888 70.3939168 75.3817888 70.9301197 75.2083225 71.2481585 74.8613899 71.5523318 74.5144573 71.7113512 73.9644264 71.7113512 73.184477L71.7113512 67.8199994C71.7113512 67.5604489 71.7990935 67.3439404 71.9726283 67.1704742 72.1465964 67.010418 72.3634607 66.9243337 72.6381699 66.9243337 72.899447 66.9243337 73.1163113 67.010418 73.2900627 67.1704742 73.4638141 67.3439404 73.5509065 67.5604489 73.5509065 67.8199994L73.5509065 73.2424433C73.5509065 74.5425753 73.203187 75.4975051 72.5222634 76.1039882M87.6160844 76.7118989C87.4133022 76.8853652 87.1817058 76.9714494 86.9498928 76.9714494 86.6314208 76.9714494 86.3707936 76.8276152 86.1820935 76.5533567L82.8084561 71.8397022 81.1428689 73.0835983 81.1428689 76.076C81.1428689 76.3353343 81.0566431 76.5533567 80.8969738 76.725309 80.723439 76.8853652 80.5057081 76.9714494 80.259813 76.9714494 79.9703717 76.9714494 79.7387754 76.8853652 79.5648073 76.725309 79.3910559 76.5533567 79.3041802 76.3500421 79.3041802 76.076L79.3041802 67.8201292C79.3041802 67.5603624 79.3769738 67.3574803 79.5507252 67.1853118 79.7097446 67.0103315 79.9123101 66.9242472 80.1731539 66.9242472 80.4478632 66.9242472 80.6794595 67.0103315 80.8681596 67.1556798 81.0419111 67.3291461 81.1428689 67.5456545 81.1428689 67.8201292L81.1428689 70.8270225 86.0958677 67.0979298C86.2698358 66.9672893 86.4576693 66.8946152 86.6455029 66.8946152 86.8920479 66.8946152 87.1089122 66.9969213 87.2973957 67.1706039 87.4713637 67.3574803 87.5723216 67.5752865 87.5723216 67.8348371 87.5723216 68.1240197 87.442333 68.355236 87.21052 68.5287022L84.2708278 70.7558624 87.7176921 75.5835028C87.8335986 75.7571854 87.9055257 75.9306517 87.9055257 76.0907079 87.9055257 76.3353343 87.8039179 76.5384326 87.6160844 76.7118989M98.0119008 69.5696081C97.4906465 68.875743 96.76661 68.5288104 95.8107605 68.5288104 94.8551277 68.5288104 94.1163592 68.875743 93.5948883 69.5696081 93.1173968 70.205507 92.8858005 71.0018947 92.8858005 71.9834284 92.8858005 72.9532823 93.1173968 73.7332317 93.6098369 74.3410126 94.1310912 75.0054621 94.8692098 75.3374705 95.8107605 75.3374705 96.76661 75.3374705 97.4906465 75.0054621 97.9971688 74.3410126 98.4462794 73.7479396 98.6780924 72.9679902 98.6780924 71.9834284 98.6780924 71.0018947 98.4462794 70.1923132 98.0119008 69.5696081M99.3440673 75.555493C98.5331551 76.4942008 97.360008 76.9715576 95.8257092 76.9715576 94.3197913 76.9715576 93.1464276 76.4942008 92.2924025 75.5405688 91.4667583 74.6299789 91.0611938 73.4157149 91.0611938 71.8975604 91.0611938 70.4235295 91.4667583 69.2373834 92.3067013 68.3270098 93.1611596 67.3870042 94.3197913 66.9094312 95.7819464 66.9094312 97.2157206 66.9094312 98.3741357 67.3870042 99.2431095 68.3417177 100.068104 69.2670154 100.48775 70.4518638 100.48775 71.8975604 100.48775 73.458757 100.097135 74.6732374 99.3440673 75.555493M111.172185 69.207773C110.92564 68.9335146 110.607168 68.789464 110.230634 68.789464L106.886027 68.789464C106.538525 68.789464 106.364773 69.0059725 106.364773 69.4389893L106.364773 71.6957815 110.230634 71.6957815C110.607168 71.6957815 110.92564 71.5504331 111.172185 71.2612506 111.403998 70.9722843 111.533986 70.6400596 111.533986 70.235377 111.533986 69.845186 111.403998 69.4984697 111.172185 69.207773M112.474887 72.4326888C111.895571 73.0391719 111.172185 73.3430624 110.31751 73.3430624L106.364773 73.3430624 106.364773 76.1470736C106.364773 76.6971045 106.045434 76.9715792 105.437954 76.9715792 104.829174 76.9715792 104.525434 76.6823966 104.525434 76.1336635L104.525434 68.6012899C104.525434 68.1535652 104.684887 67.7917084 105.017658 67.5321579 105.307316 67.3009416 105.697932 67.1705174 106.161341 67.1705174L110.447498 67.1705174C111.288091 67.1705174 111.983097 67.4731101 112.532732 68.051259 113.068718 68.6592562 113.343644 69.3827534 113.343644 70.2206691 113.343644 71.0877843 113.053986 71.8249079 112.474887 72.4326888M120.707758 69.4257739L118.89745 73.2128329 122.531715 73.2128329 120.707758 69.4257739zM125.616344 76.6970829C125.384531 76.885257 125.124771 76.9862654 124.833596 76.9862654 124.457929 76.9862654 124.197952 76.7980913 124.022901 76.4228244L123.284782 74.8464874 118.144383 74.8464874 117.406265 76.4228244C117.232513 76.7980913 116.942855 76.9862654 116.565672 76.9862654 116.276014 76.9862654 116.029469 76.885257 115.812604 76.6970829 115.581008 76.4942008 115.48005 76.2776924 115.48005 75.9885098 115.48005 75.8446756 115.509514 75.6846194 115.59574 75.525861L119.708363 67.4594621C119.882114 67.0978216 120.214885 66.9094312 120.707758 66.9094312 121.199548 66.9094312 121.533619 67.0978216 121.720803 67.4594621L125.819777 75.525861C125.906002 75.6846194 125.949115 75.8446756 125.949115 75.9885098 125.949115 76.2776924 125.833209 76.4942008 125.616344 76.6970829zM137.123455 68.3121938L133.416397 73.1400506 133.416397 76.0610758C133.416397 76.3353343 133.330171 76.5533567 133.15512 76.725309 132.982668 76.8853652 132.779236 76.9714494 132.519259 76.9714494 132.24325 76.9714494 132.026385 76.8853652 131.852417 76.725309 131.678666 76.5533567 131.592657 76.3353343 131.592657 76.0610758L131.592657 73.1400506 127.885382 68.3121938C127.740011 68.1387275 127.682166 67.9652612 127.682166 67.7768708 127.682166 67.5322444 127.783124 67.3291461 128.001505 67.1556798 128.203421 66.9969213 128.449966 66.9095393 128.709943 66.9095393 128.97122 66.9095393 129.188084 67.0399635 129.376784 67.2861039L132.504527 71.5799354 135.617537 67.2861039C135.791288 67.0399635 136.022885 66.9095393 136.282862 66.9095393 136.544139 66.9095393 136.775952 66.9969213 136.992816 67.1556798 137.196032 67.3291461 137.311938 67.5322444 137.311938 67.7768708 137.311938 67.9652612 137.239361 68.1387275 137.123455 68.3121938M127.464869 38.2468517C127.240205 38.1570904 127.014458 38.0214753 126.833774 37.8869416 123.273387 35.6312309 120.345177 33.0603826 118.002782 30.1765596 117.687343 29.8157843 117.282862 29.3652478 116.831585 28.8688573 116.786739 28.8688573 116.742976 28.7790961 116.697047 28.6893348L137.805029 28.7137758C138.255222 28.7148573 138.526682 28.849391 138.525815 29.0745511 138.344048 30.0653854 137.350502 31.3702758 135.635302 32.8992449 133.377617 34.8768039 130.849772 36.5852955 127.961209 38.0225567 127.781391 38.1133994 127.645553 38.1581719 127.464869 38.2468517M189.325792 16.9768994C188.965291 16.6598152 188.379042 16.480509 187.658255 16.4794275L184.139897 16.475318 184.145964 10.4864051C184.103067 9.09110449 183.292372 8.36933764 181.668814 8.36717472 180.045473 8.45477303 179.186682 9.17459326 179.184732 10.4803489L179.178666 16.4690455 164.746249 16.4528236C163.93447 16.4517421 163.392201 16.6303994 163.076762 16.900332 162.625485 17.2602421 162.444584 17.9350736 162.443717 18.9259079 162.442634 19.8269809 162.621368 20.4568236 163.072645 20.8178152 163.477993 21.1785904 164.019179 21.3589781 164.739966 21.3600596L179.172383 21.3762815 179.146819 43.3946045C179.146819 43.8453573 178.921288 44.0705174 178.470011 44.069436 177.697879 44.0690034 169.085485 44.611464 159.075713 44.3994978L159.10496 19.6872562C160.190365 17.1674528 161.00496 14.7811017 161.593158 12.5312309 161.73008 11.9461607 161.820855 11.3152365 161.911847 10.6404051 161.912714 9.73933202 161.597275 9.10948933 161.011243 8.79240506 160.47114 8.52225618 159.74927 8.34186854 158.937491 8.34078708 158.215621 8.47445562 157.673352 8.96976461 157.35683 9.77912978 155.591368 15.8554247 153.014344 21.6159331 149.625542 27.1062927 149.26309 27.6465904 149.037343 28.140818 149.037343 28.5913545 149.036477 29.3120399 149.260057 29.8971101 149.756397 30.3039556 150.296283 30.7992646 151.018153 31.024641 151.874778 31.0257225 152.777548 31.0268039 153.453489 30.7127478 153.995542 29.9929275 154.041471 29.9033826 154.086534 29.8136213 154.177309 29.7229949L154.159761 44.2327365C146.26187 43.857686 138.151665 42.91595 132.73959 40.8198629 133.055029 40.6403404 133.415314 40.4610343 133.776899 40.2367393 137.342486 37.9890315 140.142007 35.560936 142.173945 32.9961438 143.619635 30.9716494 144.388518 29.2620764 144.525439 27.8656944 144.526522 26.51495 144.031266 25.5691045 143.040969 24.9370989 142.453854 24.6210961 141.372349 24.439627 139.749008 24.3479191L130.052075 24.3364556 130.058358 18.3479753 145.934299 18.3661438C146.746294 18.3672253 147.378255 18.1429303 147.784686 17.6476213 148.056146 17.2887927 148.235964 16.7932674 148.23683 16.072582 148.237913 15.1725904 148.059396 14.5873039 147.697811 14.3162899 147.337309 13.9552983 146.75236 13.7749107 145.940582 13.7740455L130.064424 13.7556607 130.06854 9.88295C130.069407 9.16226461 129.799897 8.57719438 129.303774 8.1255764 128.943273 7.81065506 128.313261 7.62918596 127.45577 7.62810449 126.46309 7.62723933 125.831129 7.80654551 125.51569 8.12168315 125.018483 8.6619809 124.792737 9.24575337 124.79187 9.87689382L124.787754 13.7496045 109.63325 13.7320848C108.866534 13.7312197 108.279418 13.9105258 107.874071 14.2702197 107.512702 14.6751185 107.331802 15.2593236 107.330935 16.0245652 107.330068 16.881082 107.508586 17.4670174 107.869954 17.7821551 108.275302 18.1429303 108.860468 18.323318 109.627184 18.3243994L124.781471 18.3417028 124.775405 24.3306157 111.020011 24.315259C110.342987 24.3141775 109.845781 24.4937 109.485279 24.8086213 109.078848 25.2122225 108.898164 25.7525202 108.897298 26.4284331 108.896214 27.1489022 109.030969 27.6892 109.390388 28.0501916 109.615918 28.5007281 110.157104 28.6821972 111.014812 28.6832787L113.043717 28.6852253C112.637286 29.0899079 112.456602 29.6291242 112.455519 30.3050371 112.499498 31.0257225 113.08553 31.971568 114.256727 33.1888601 117.049099 36.2550174 119.706933 38.6443966 122.230011 40.4476242 118.351152 41.8840202 113.567571 43.3651888 107.83854 44.8889669 107.206363 45.2480118 106.934686 45.9686972 106.93382 47.0043039 106.932737 47.453759 107.158483 47.9492843 107.608677 48.400686 108.059954 48.8514388 108.689966 49.1224528 109.411836 49.1235343 110.765667 49.0339893 112.749726 48.6323348 115.321551 47.8696888 119.924447 46.3887365 123.894299 44.9073517 127.323831 43.4700904 143.357058 51.0785989 176.976226 49.0216607 178.780251 49.0236073 180.584493 48.8451663 181.892611 48.4415652 182.705257 47.8575764 183.607811 47.1377562 184.105017 46.2377646 184.1061 45.1571691L184.133615 21.3825539 187.652189 21.3866635C188.55366 21.3875287 189.185838 21.16345 189.592269 20.6240174 189.817799 20.3530034 189.953637 19.7679331 189.954504 18.9574865 189.955587 17.9216635 189.732007 17.2470483 189.325792 16.9768994"/>
    <path fill="#C9191D" fill-rule="nonzero" d="M170.088173,37.8014846 C170.31392,37.9818722 170.674422,38.0716334 171.215608,38.0724986 C171.982324,38.0735801 172.568356,37.8953553 173.020716,37.4448188 C173.336155,37.1744537 173.517922,36.7697711 173.517922,36.1399284 C173.519872,34.789184 173.025699,33.1663441 172.126178,31.1848919 C170.50587,27.9411587 169.199918,25.8686475 168.254468,24.876948 C167.713282,24.5150913 167.128116,24.2897149 166.496155,24.1988722 C166.044878,24.198007 165.63953,24.2886334 165.278162,24.422302 C164.781822,24.6924508 164.420237,25.0062907 164.193624,25.4120548 C164.058869,25.7717486 164.014023,26.0421138 164.01294,26.3120463 C164.01294,26.7625829 164.147911,27.122493 164.372358,27.4834846 C166.712586,31.7189171 168.423886,34.9176615 169.457295,37.0349452 C169.637979,37.3957205 169.818664,37.6658694 170.088173,37.8014846"/>
  </g>
</svg>
