<svg height="732" viewBox="0 0 733 732" width="733" xmlns="http://www.w3.org/2000/svg"><g fill="none" fill-rule="evenodd" transform=""><g fill-rule="nonzero"><circle cx="366.8" cy="366" fill="#0f1839" r="366"/><path d="m571.3 498.9c-7.5-9-13.4-17.4-19.2-23-11.6-16.4-24.2-40.1-41.1-59.7-3.9 1.6-7.8 3-11.6 4.2 24.6 32.5 36.2 77.1 71.9 78.5z" fill="#fff" opacity=".9"/><path d="m527.1 471.8c-4.7-6.2-9.3-12.4-11.7-16.9-5.9-8.9-13-21.1-21.7-32.8-3.4.9-6.8 1.6-10.2 2.1 13.6 22.2 23.1 46 43.6 47.6z" fill="#fff" opacity=".8"/><path d="m493.7 449c-2.9-5.6-6.4-9.6-8.2-12.9-2.1-3.3-4.3-7.2-6.6-11.2-3.4.4-6.9.6-10.2.6 5.7 12 12 22.4 25 23.5z" fill="#fff" opacity=".7"/><path d="m613 507.3c-12.7-13.4-22.1-25.8-29.1-36.5-14-20.5-28.4-47.1-50.1-66.6-6.4 4.1-13 7.7-19.6 10.6 35.4 39.3 45.4 90.6 98.8 92.5z" fill="#fff" opacity=".95"/><path d="m166.7 469.3c-7 10.7-16.3 23-29.1 36.5 52.2-1.9 62.9-51 96.4-89.8-7-2.6-14-5.9-21-9.8-19.5 19-33.1 43.8-46.3 63.1z" fill="#fff" opacity=".95"/><path d="m235.2 453.4c-2.4 4.5-7 10.7-11.7 16.9 20.3-1.5 29.8-25 43.1-47-3.6-.2-7.2-.7-10.8-1.3-8.1 11.2-14.9 22.9-20.6 31.4z" fill="#fff" opacity=".8"/><path d="m198.5 474.4c-5.8 5.6-11.6 14-19.2 23 35-1.4 46.8-44.3 70.5-76.7-4.1-.9-8.2-2.1-12.4-3.6-15.8 19.1-27.8 41.6-38.9 57.3z" fill="#fff" opacity=".9"/><path d="m173.3 259-.4-2.2 18.4-17.9-25.4-3.7-11.4-23-11.4 23-25.4 3.7 18.4 17.9-.7 4c12.3-9.4 28.1-10 37.9-1.8z" fill="#fff"/><path d="m605.2 260.8c.2.2.5.4.7.6l-.8-4.6 18.4-17.9-25.4-3.7-11.4-23-11.4 23-25.4 3.7 18.4 17.9-.1.7c10-7.1 25.3-6 37 3.3z" fill="#fff"/><path d="m331.8 242h-8c.6 2.6.9 5.3.9 8.2 0 12.8-6 23.1-13.4 23.1s-13.4-10.4-13.4-23.1c0-2.9.3-5.7.9-8.2h-9.6c-.9 3.9-1.5 8-1.5 12.3 0 19.3 10.5 35.7 22.8 35.7 12.4 0 22.8-16.3 22.8-35.7 0-4.2-.5-8.4-1.5-12.3z" fill="#fff"/><path d="m431.5 290c12.4 0 22.8-16.3 22.8-35.7 0-4.3-.5-8.5-1.5-12.3h-8c.6 2.6.9 5.3.9 8.2 0 12.8-6 23.1-13.4 23.1s-13.4-10.4-13.4-23.1c0-2.9.3-5.7.9-8.2h-9.6c-.9 3.9-1.5 8-1.5 12.3-.1 19.4 10.4 35.7 22.8 35.7z" fill="#fff"/><path d="m138.3 200.8 16.3-8.6 16.2 8.6-3.1-18.1 13.1-12.8-18.1-2.7-8.1-16.4-8.1 16.4-18.2 2.7 13.1 12.8z" fill="#fff" opacity=".8"/><path d="m570.5 200.8 16.2-8.6 16.2 8.6-3.1-18.1 13.2-12.8-18.2-2.7-8.1-16.4-8.1 16.4-18.2 2.7 13.2 12.8z" fill="#fff" opacity=".8"/></g><path d="m424.3 386.8c-16.2 2.7-33.6 4.2-51.6 4.2-.3 0-.6 0-.9 0 16.3.3 34.5-.6 52.5-4.2z"/><path d="m424.3 386.8c2.7-.5 5.4-.9 8.1-1.5.2-.2.3-.3.3-.3-2.8.7-5.6 1.3-8.4 1.8z" fill="#63bcc3" fill-rule="nonzero"/><path d="m468.4 425.4-.2-1.8c0-3.3-.1-6.3-.4-9.5-1.2-12.8-4.6-24.6-10-35.2-5.6 2-11.4 3-17.4 4-20.6 5.2-43.4 8.2-67.4 8.2 16 .2 33.7-.8 51.3-4.2 2.7-.5 5.4-.9 8.1-1.5-.1.1-.2.3-.4.5-.7.9-1.8 2.3-3.5 4.2-13.9 15.8-61 59.8-112.2-.1-1.1-1.3-2.3-2.7-3.4-4.2-.1-.2-.3-.4-.4-.6 18.4 3.7 38.4 5.7 59.4 5.8h.6c-23.4 0-45.6-2.8-65.7-7.7-5.1-.7-10.1-1.4-14.9-2.9-6.9 12.7-11 27.1-11 42.7-3 .3-6 .4-9.1.3-2.3 4-4.5 7.8-6.6 11.1-1.8 3.4-5.2 7.3-8.2 12.9 11.8-1 18.1-9.7 23.4-20.3l-2.2 19.7c35.4 11.6 61.9 15.3 94.8 15.2 34.2-.1 67.1-5.7 97.8-16.2z" fill="#fff" fill-rule="nonzero"/><path d="m373 391c-.2 0-.4 0-.6 0h.3z" fill="#63bcc3" fill-rule="nonzero"/><path d="m343.8 242c-.1-.5-.2-.9-.3-1.4-4.2-19.6-17.2-33.6-33-33.6-19.3 0-34.5 20.8-34.5 47.3s15.1 47.3 34.5 47.3c19.3 0 34.5-20.8 34.5-47.3-.1-4.2-.5-8.3-1.2-12.3z"/><path d="m393.7 301.1c-7.1 9.1-19.8 11.1-30.7 9.6-6.3-.8-6.2 9.1 0 9.9 13.3 1.7 29.2-1.6 37.8-12.5 3.8-5-3.1-12-7.1-7z"/><path d="m464.9 242c-.2-1.2-.6-2.4-.9-3.7-3.8-14.8-12.7-26-23.9-29.8-2.7-1.2-5.6-1.8-8.5-1.8-2.8 0-5.5.6-8.1 1.6-15.3 4.8-26.5 23.3-26.5 46 0 26.5 15.1 47.3 34.5 47.3 19.3 0 34.5-20.8 34.5-47.3 0-4.3-.4-8.4-1.1-12.3z"/><path d="m370.1 298.4c7.6 0 13.8-4.1 13.8-9.1s-6.2-9.1-13.8-9.1-13.8 4.1-13.8 9.1 6.2 9.1 13.8 9.1z"/><path d="m475.5 159.6-.8-.8-.2-1.1c-2.2-12.5-10.2-45.4-35.8-79.2-1.2-1.5-4.6-4.5-6.8-3.8-1 .3-4.4 2.3-6 15.6-1.3 10.1-2.5 21-3.6 32.5l-.4 4.1-4-1.2c-14.6-4.5-29.8-6.9-45.2-6.9-16.2 0-32.2 2.5-47.4 7.5l-4 1.3-.4-4.2c-1.1-11.7-2.4-22.9-3.7-33.2-1.7-13.3-5-15.3-6-15.6-2.2-.6-5.5 2.3-6.8 3.8-27.5 36.3-34.6 71.6-36.2 81.6l-.2 1.1-.8.8c-25.3 25.4-39.3 58.7-39.7 93.9h43.1c0-.4 0-.9 0-1.3 0-29.3 17.9-53.1 40-53.1s40 23.8 40 53.1v1.3h41.1c0-.4 0-.9 0-1.3 0-29.3 17.9-53.1 40-53.1s40 23.8 40 53.1v1.3h46.1c-.5-36.3-15.5-70.4-42.3-96.2z"/><path d="m536.6 298.5c0-12-3.9-19.2-10.9-32.4-.7-1.4-1.5-2.8-2.3-4.4 1.1-1.2 1.1-3.1 1.1-4.2 0-38.5-15.4-74.7-43.5-102.1-2.6-13.8-11.1-47-36.9-81.1l-.1-.1c-.7-.8-6.9-8.1-13.9-6.1-5.7 1.7-9.3 8.6-10.9 21.3-1.1 8.9-2.2 18.5-3.2 28.6-14-4-28.5-6-43.3-6-15.5 0-30.8 2.2-45.5 6.6-1-10.3-2.1-20.1-3.3-29.2-1.6-12.7-5.1-19.6-10.9-21.3-7-2-13.2 5.2-13.9 6.1l-.1.1c-27.5 36.4-35.4 71.9-37.3 83.6-26.4 26.9-40.9 62.1-40.9 99.3v1.5c.1 1.4.5 2.3 1 2.9-.7 1.4-1.5 2.8-2.2 4.1-7 13.1-10.9 20.4-11.1 31.9v.6.5.1.2c0 6.7 1.3 13.3 3.8 19.6 2.2 5.7 5.2 11.2 9.1 16.5 14.1 19.1 39 35 70.2 45.2 4.8 1.6 9.8 2.2 14.9 2.9 20.2 5 42.5 7.8 65.9 7.8 24.1 0 47.1-2.9 67.7-8.2 6-1 11.8-2 17.4-4 33.6-11.8 59.2-30.2 71.3-52.2 4.7-8.4 7.3-17.4 7.5-26.6 0 0 0 0 0-.1 0-.3 0-.7 0-1 0-.1 0-.2 0-.3.3.1.3 0 .3-.1zm-260.6-44.1c0-26.5 15.1-47.3 34.5-47.3 15.8 0 28.8 13.9 33 33.6.1.5.2.9.3 1.4h-.1c.7 3.9 1.1 8.1 1.1 12.3 0 26.5-15.1 47.3-34.5 47.3-19.2 0-34.3-20.8-34.3-47.3zm94.1 44c-7.6 0-13.8-4.1-13.8-9.1s6.2-9.1 13.8-9.1 13.8 4.1 13.8 9.1-6.2 9.1-13.8 9.1zm23.6 2.7c3.9-5 10.9 2 7 7-8.6 10.9-24.5 14.3-37.8 12.5-6.2-.8-6.3-10.7 0-9.9 11 1.5 23.7-.5 30.8-9.6zm37.8.6c-19.3 0-34.5-20.8-34.5-47.3 0-22.7 11.1-41.2 26.5-46 2.6-1 5.3-1.6 8.1-1.6 3 0 5.8.7 8.5 1.8 11.2 3.8 20.1 15 23.9 29.8.4 1.3.7 2.5.9 3.7h-.1c.7 3.9 1.1 8.1 1.1 12.3 0 26.5-15.1 47.3-34.4 47.3zm40.2-45.8c0-.4 0-.9 0-1.3 0-29.3-17.9-53.1-40-53.1s-40 23.8-40 53.1v1.3h-41.1c0-.4 0-.9 0-1.3 0-29.3-17.9-53.1-40-53.1s-40 23.8-40 53.1v1.3h-43.1c.4-35.2 14.4-68.5 39.7-93.9l.8-.8.2-1.1c1.5-10 8.7-45.2 36.2-81.6 1.3-1.5 4.6-4.5 6.8-3.8 1 .3 4.4 2.3 6 15.6 1.3 10.3 2.5 21.5 3.7 33.2l.4 4.2 4-1.3c15.2-5 31.1-7.5 47.4-7.5 15.4 0 30.7 2.3 45.2 6.9l4 1.2.4-4.1c1.1-11.5 2.4-22.5 3.6-32.5 1.7-13.3 5-15.3 6-15.6 2.2-.6 5.5 2.3 6.8 3.8 25.6 33.9 33.5 66.7 35.8 79.2l.2 1.1.8.8c26.8 25.7 41.8 59.8 42.2 96.3h-46z" fill="#fff" fill-rule="nonzero"/><path d="m175.1 105.5 5.8 11.8 12.9 1.9-9.3 9.1 2.2 12.9-11.6-6.1-11.6 6.1 2.2-12.9-9.4-9.1 13-1.9z" fill="#fff" fill-rule="nonzero" opacity=".6"/><path d="m567.7 101 5.8 11.7 13 1.9-9.4 9.1 2.2 13-11.6-6.1-11.6 6.1 2.2-13-9.3-9.1 12.9-1.9z" fill="#fff" fill-rule="nonzero" opacity=".6"/><path d="m173.4 308.8c10.1-8.6 15.5-19.4 14.4-27.1-.3-2.1-1.1-3.9-2.3-5.4-1.1-1.3-2.5-2.3-4.2-2.9 1.6 10.1-2.9 21.6-12.4 29.6-9.8 8.1-22.2 10.3-31.9 6.6.2 2.3 1 4.3 2.4 5.9.5.5 1 1 1.5 1.4 6.8 5.3 20.8 2 32.5-8.1z" fill="#71c6ce" fill-rule="nonzero" opacity=".7"/><path d="m571.6 302.9c-9.7-7.8-14.4-19.2-13-29.3-1.6.7-3 1.7-4.1 3-1.2 1.5-2 3.4-2.2 5.4-1 7.7 4.7 18.5 15 26.8 12 9.8 25.9 12.8 32.7 7.5.5-.4 1.1-.9 1.5-1.5 1.3-1.7 2.1-3.7 2.3-6-9.8 3.9-22.3 2-32.2-5.9z" fill="#71c6ce" fill-rule="nonzero" opacity=".7"/><path d="m312.4 385.2c.1.2.3.4.4.6 1.1 1.4 2.3 2.8 3.4 4.2 51.1 59.9 98.2 15.9 112.2.1 1.6-1.8 2.8-3.3 3.5-4.2.2-.2.3-.4.4-.5-2.7.5-5.3 1-8.1 1.5-17.6 3.5-35.3 4.4-51.3 4.2-.1 0-.2 0-.3 0s-.2 0-.3 0c-.2 0-.4 0-.6 0-20.8-.1-40.9-2.2-59.3-5.9z" fill="#71c6ce" fill-rule="nonzero"/><g fill="#fff" fill-rule="nonzero" transform="translate(171 531)"><path d="m35.4 47.6c.5-1.2 1.1-2.5 1.8-4.2.7-1.6 1.5-3.4 2.3-5.2.8-1.9 1.7-3.8 2.6-5.8s1.8-4 2.6-5.8c.8-1.7 1.5-3.3 2.2-4.7.3 4.4.6 8.9.8 13.5.3 6.3.5 12.6.7 18.7v1.3h12.1l-.1-1.4c-.2-4.2-.4-8.7-.7-13.3s-.6-9.1-.9-13.5-.7-8.9-1.1-13.2-.8-8.4-1.3-12.2l-.1-1.2h-10.5l-.4.7c-1.1 1.9-2.4 4.3-3.7 7.1-1.4 2.8-2.7 5.7-4.1 8.7s-2.8 6.1-4.1 9.3c-.9 2-1.7 3.9-2.5 5.8-.8-1.8-1.6-3.7-2.5-5.8-1.4-3.1-2.8-6.2-4.2-9.3-1.4-3-2.8-5.9-4.1-8.7-1.4-2.8-2.6-5.1-3.7-7.1l-.4-.7h-11.1l-.2 1.2c-.5 3.6-.9 7.6-1.3 11.8-.4 4.3-.8 8.7-1.1 13.2s-.6 9.2-.9 13.7-.5 9-.7 13.4l-.1 1.4h12.1v-1.3c.2-6.1.4-12.3.7-18.7.2-4.6.5-9.1.8-13.5.7 1.5 1.4 3 2.2 4.7.8 1.8 1.7 3.8 2.6 5.8s1.7 3.9 2.6 5.8c.8 1.9 1.6 3.6 2.3 5.3s1.3 3.1 1.8 4.2l.4.8h8.9z"/><path d="m100.9 50.2c1.8-1.9 3.2-4.3 4.1-7s1.4-5.7 1.4-8.9c0-3.3-.5-6.3-1.5-8.9-1-2.7-2.4-5-4.1-7-1.8-1.9-3.9-3.5-6.5-4.5-2.5-1-5.2-1.6-8.2-1.6-2.9 0-5.7.5-8.1 1.6-2.5 1-4.6 2.6-6.4 4.5s-3.2 4.3-4.2 7-1.5 5.7-1.5 8.9c0 3.3.5 6.3 1.5 9s2.4 5.1 4.1 7c1.8 1.9 3.9 3.5 6.4 4.5 2.5 1.1 5.2 1.6 8.2 1.6s5.8-.5 8.2-1.6c2.6-1.1 4.8-2.6 6.6-4.6zm-14.7-4.5c-2.6 0-4.5-.9-5.9-2.9-1.5-2-2.3-4.9-2.3-8.6 0-3.6.8-6.4 2.2-8.5 1.4-1.9 3.3-2.9 5.9-2.9s4.5.9 5.9 2.9c1.5 2 2.2 4.9 2.2 8.5s-.8 6.5-2.3 8.6c-1.2 2-3.1 2.9-5.7 2.9z"/><path d="m148.6 55.3v-23.5c0-2.7-.3-5.3-.8-7.6-.6-2.4-1.6-4.5-3-6.3-1.4-1.7-3.3-3.1-5.7-4.1-2.3-.9-5.2-1.4-8.6-1.4-3.5 0-6.7.2-9.5.7s-5.2.9-7 1.5l-1 .3v40.4h11.8v-31.9c.4-.1 1-.1 1.6-.2 1.2-.1 2.4-.2 3.4-.2 1.4 0 2.5.2 3.4.5.8.3 1.4.8 1.9 1.5.5.8.9 1.8 1.1 3.1.3 1.4.4 3.1.4 5.1v22h12z"/><path d="m189.6 18.4c-1.8-1.9-3.9-3.5-6.5-4.5-2.5-1-5.2-1.6-8.2-1.6-2.9 0-5.7.5-8.1 1.6-2.5 1-4.6 2.6-6.4 4.5s-3.2 4.3-4.2 7-1.5 5.7-1.5 8.9.5 6.3 1.5 9 2.4 5.1 4.1 7c1.8 1.9 3.9 3.5 6.4 4.5 2.5 1.1 5.2 1.6 8.2 1.6s5.8-.5 8.2-1.6c2.5-1.1 4.7-2.6 6.4-4.5 1.8-1.9 3.2-4.3 4.1-7s1.4-5.7 1.4-8.9-.5-6.3-1.5-8.9c-.7-2.8-2.1-5.2-3.9-7.1zm-14.6 27.3c-2.6 0-4.5-.9-5.9-2.9-1.5-2-2.3-4.9-2.3-8.6 0-3.6.8-6.4 2.2-8.5 1.4-1.9 3.3-2.9 5.9-2.9s4.5.9 5.9 2.9c1.5 2 2.2 4.9 2.2 8.5s-.8 6.5-2.3 8.6c-1.2 2-3.1 2.9-5.7 2.9z"/><path d="m217.7 45.3c-.6.3-1.9.7-4.6.7-2.3 0-4.3-.2-6.1-.7s-3.4-1-4.7-1.5l-1.5-.6-2.1 10.3 1.1.4c.9.4 2.4.8 4.6 1.4s5.1.9 8.7.9c5.4 0 9.7-1.1 12.7-3.1 3.2-2.2 4.8-5.4 4.8-9.7 0-1.9-.3-3.6-.8-5s-1.3-2.7-2.5-3.8c-1.1-1.1-2.4-2-4.1-2.9-1.5-.8-3.4-1.6-5.7-2.4-1.3-.4-2.3-.9-3.2-1.3-.8-.4-1.5-.8-1.9-1.1s-.6-.6-.7-.9-.2-.7-.2-1.2c0-.8.3-1.3 1-1.7.9-.5 2.2-.8 3.8-.8 1.9 0 3.6.2 5.1.5 1.5.4 2.7.7 3.6 1.2l1.5.7 2.3-10.2-1.1-.4c-1.1-.4-2.7-.9-4.9-1.3s-4.5-.7-6.9-.7c-4.8 0-8.8 1.1-11.7 3.4-3 2.3-4.5 5.6-4.5 9.6 0 2 .3 3.8 1 5.3.7 1.4 1.6 2.7 2.7 3.7s2.4 1.8 3.9 2.6c1.4.7 3 1.4 4.7 2 2.6 1 4.4 1.8 5.5 2.6.8.6 1.2 1.3 1.2 2.1-.1 1.3-.5 1.7-1 1.9z"/><path d="m263.6 54.5c2.4-1.1 4.4-2.6 5.9-4.6 1.6-1.9 2.8-4.3 3.6-6.9s1.2-5.5 1.2-8.7c0-3.3-.5-6.3-1.5-9s-2.4-5-4.3-6.9-4.1-3.4-6.8-4.4c-2.6-1-5.6-1.5-8.8-1.5-3.1 0-6 .2-8.8.7-2.7.5-5.1.9-7 1.5l-1 .3v54.3h11.9v-14.5c.6.2 1.3.5 2.1.7 1.7.5 3.5.7 5.5.7 2.9 0 5.6-.6 8-1.7zm-15.6-31.1c.5-.1 1-.2 1.5-.2.9-.1 1.8-.1 2.6-.1 3.7 0 6.2.9 7.8 2.9s2.4 4.9 2.4 8.6c0 3.5-.7 6.3-2.1 8.3-1.3 1.9-3.3 2.8-6.1 2.8-1.3 0-2.6-.2-3.8-.6-.9-.3-1.7-.7-2.3-1z"/><path d="m312.7 54.2v-24.9c0-2.4-.3-4.7-.8-6.7-.6-2.1-1.6-4-2.9-5.5-1.4-1.5-3.2-2.7-5.5-3.5-2.2-.8-4.9-1.2-8.1-1.2-2.6 0-5 .2-7.3.6s-4 .8-5.2 1.3l-1.1.4 1.6 10.2 1.6-.6c1-.4 2.4-.7 4-1 1.7-.3 3.5-.4 5.5-.4 1.4 0 2.5.2 3.4.5.8.3 1.5.7 1.9 1.3.5.6.8 1.2 1 2s.3 1.6.3 2.5c-.7-.1-1.4-.2-2-.3-1.2-.1-2.3-.2-3.3-.2-2.2 0-4.4.2-6.5.7s-4 1.2-5.7 2.3-3 2.5-4 4.3-1.5 3.9-1.5 6.4c0 2.6.4 4.8 1.3 6.5.9 1.8 2.1 3.3 3.7 4.4 1.5 1.1 3.4 1.9 5.5 2.4 2 .5 4.3.7 6.8.7 3.6 0 6.9-.2 9.8-.7 2.8-.4 5-.8 6.4-1.1zm-20.7-15.5c.7-.3 1.5-.6 2.4-.7s1.9-.2 2.8-.2c1.1 0 2.1.1 2.9.2.4.1.7.1 1 .2v7.8c-1.3.2-3 .2-5 .2s-3.6-.3-4.8-1c-.3-.2-1.4-.8-1.4-3.3 0-.8.2-1.5.5-2 .5-.5 1-.9 1.6-1.2z"/><path d="m349 44.2c-1 .4-2.2.8-3.7 1.1-1.4.3-2.9.4-4.3.4-3.7 0-6.3-1-7.8-2.9-1.6-2-2.3-4.9-2.3-8.4 0-3.7.8-6.6 2.5-8.5 1.6-1.9 3.9-2.8 7-2.8 1.4 0 2.7.1 3.9.4s2.4.6 3.3 1l1.5.6 2.7-10.1-1.1-.5c-3.5-1.4-7.2-2.1-11-2.1-3.2 0-6.1.6-8.7 1.7s-4.8 2.7-6.6 4.7-3.2 4.3-4.1 7-1.4 5.6-1.4 8.6c0 3.1.4 6 1.3 8.6.9 2.7 2.2 5.1 3.9 7 1.8 2 4 3.5 6.7 4.6 2.6 1.1 5.8 1.6 9.3 1.6 2.2 0 4.4-.2 6.5-.6 2.2-.4 3.8-.9 4.9-1.5l.9-.5-1.7-10.2z"/><path d="m387.6 17.8c-3.3-3.6-7.9-5.5-13.7-5.5-2.5 0-4.9.5-7.3 1.4s-4.5 2.4-6.3 4.2c-1.8 1.9-3.3 4.2-4.4 7-1.1 2.7-1.6 6-1.6 9.6 0 3.1.4 6 1.3 8.6.9 2.7 2.2 5 4 7s4.1 3.5 6.8 4.6 5.9 1.6 9.5 1.6c1.4 0 2.8-.1 4.1-.2s2.6-.3 3.8-.6c1.2-.2 2.2-.5 3.1-.8 1-.3 1.7-.6 2.3-.9l.9-.5-1.6-10.2-1.6.7c-1 .4-2.3.8-4.1 1.2-1.7.4-3.7.6-5.7.6-3.4 0-6-.8-7.7-2.3-1.4-1.2-2.3-2.8-2.7-4.9h25.6l.1-1.2c.1-.5.1-1.1.1-1.8 0-.6 0-1.2 0-1.7 0-6.9-1.6-12.3-4.9-15.9zm-20.8 11.3c.1-.5.3-1 .5-1.5.3-.9.8-1.8 1.4-2.5s1.4-1.3 2.2-1.7c.9-.4 1.9-.6 3.1-.6 1.1 0 2.1.2 2.9.6s1.5.9 2 1.6c.6.7 1 1.5 1.3 2.5.2.6.3 1.2.4 1.8h-13.8z"/><path d="m40.1 97c0-1.2.6-1.8 1.8-1.8h4.4v-5.7c0-1.2.6-1.8 1.8-1.8h6.2c1.2 0 1.8.6 1.8 1.8v5.7h7.3v-5.7c0-1.2.6-1.8 1.8-1.8h6.2c1.2 0 1.8.6 1.8 1.8v5.7h4.4c1.2 0 1.8.6 1.8 1.8v3c0 1.2-.6 1.8-1.8 1.8h-4.4v6.6h4.4c1.2 0 1.8.6 1.8 1.8v2.9c0 1.3-.6 1.8-1.8 1.8l-35.9.1c-1.2 0-1.8-.6-1.8-1.8v-2.9c0-1.3.6-1.8 1.8-1.8h4.4v-6.6h-4.4c-1.2 0-1.8-.6-1.8-1.8zm3.8 21.4c.6-1.2 1.4-1.8 2.7-1.8h7.1c1.3 0 1.5.6 1 1.8l-3.5 7.9c-.5 1.3-1.4 1.9-2.6 1.9h-7.2c-1.2 0-1.5-.6-1-1.9zm12.4-10.1h7.3v-6.6h-7.3zm22.2 19.8h-7.2c-1.2 0-2.1-.6-2.6-1.9l-3.5-7.9c-.5-1.2-.2-1.8 1-1.8h7.1c1.3 0 2.1.6 2.7 1.8l3.5 7.9c.6 1.3.2 1.9-1 1.9z"/><path d="m96.4 90.3c0-1.3.6-1.8 1.8-1.8l35.9-.1c1.2 0 1.8.6 1.8 1.8l.1 35.9c0 1.3-.6 1.9-1.8 1.9h-11.2c-1.3 0-1.9-.6-1.9-1.9v-2.9c0-1.2.6-1.8 1.9-1.8h3.1v-26.4h-19.8v31.2c0 1.3-.6 1.9-1.8 1.9h-6.2c-1.2 0-1.8-.6-1.8-1.9zm11.8 8.4c0-1.2.6-1.8 1.8-1.8h12.5c1.2 0 1.8.6 1.8 1.8v3c0 1.2-.6 1.8-1.8 1.8h-12.5c-1.2 0-1.8-.6-1.8-1.8zm1.8 6.6h12.5c1.2 0 1.8.6 1.8 1.8v11.4c0 1.3-.6 1.8-1.8 1.8h-12.5c-1.2 0-1.8-.6-1.8-1.8v-11.4c0-1.2.6-1.8 1.8-1.8zm4.4 8.4h3.7v-1.8h-3.7z"/><path d="m154.6 90.2c0-1.3.6-1.8 1.8-1.8h32.3c1.2 0 1.8.6 1.8 1.8v2.9c0 1.3-.6 1.8-1.8 1.8h-11.2v26.4h13c1.2 0 1.8.6 1.8 1.8v2.9c0 1.3-.6 1.9-1.8 1.9l-35.9.1c-1.2 0-1.8-.6-1.8-1.9v-2.9c0-1.2.6-1.8 1.8-1.8h13v-26.4h-11.2c-1.2 0-1.8-.6-1.8-1.8z"/><path d="m209.1 105c0-1.2.6-1.8 1.8-1.8h.9c.6 0 .9-.3.9-.9v-13c0-1.2.6-1.8 1.8-1.8h6.2c1.2 0 1.8.6 1.8 1.8v13.2c0 2.4-.6 4.2-1.8 5.5v18.1c0 1.3-.6 1.9-1.8 1.9h-6.2c-1.2 0-1.8-.6-1.8-1.9v-16.3c-1.2 0-1.8-.6-1.8-1.8zm21.6-6.8h-4.4c-1.2 0-1.8-.6-1.8-1.8v-7.2c0-1.2.6-1.8 1.8-1.8h6.2c1.2 0 1.8.6 1.8 1.8v2.4h12.5c1.2 0 1.8.6 1.8 1.8v3c0 1.2-.6 1.8-1.8 1.8h-6.2v4.9h6.2c1.2 0 1.8.6 1.8 1.8v3c0 1.2-.6 1.8-1.8 1.8h-6.2v4.9h6.2c1.2 0 1.8.6 1.8 1.8v3c0 1.2-.6 1.8-1.8 1.8h-6.2v4.7c0 1.3-.6 1.9-1.8 1.9h-6.2c-1.2 0-1.8-.6-1.8-1.9z"/><path d="m265.3 92.3c0-1.3.6-1.8 1.8-1.8h13v-1.3c0-1.2.6-1.8 1.8-1.8h6.2c1.3 0 1.8.6 1.8 1.8v1.3h13c1.2 0 1.8.6 1.8 1.8v6.2c0 1.3-.6 1.9-1.8 1.9h-5.3c-1.3 0-1.9-.6-1.9-1.9v-1.5h-1.8v5.2h7.2c1.2 0 1.8.6 1.8 1.8v2.9c0 1.3-.6 1.8-1.8 1.8h-13.4c-1.3 0-1.8-.6-1.8-1.8v-9.9h-1.9v4.4c0 4.9-2.4 7.3-7.3 7.3h-7.9c-1.2 0-1.8-.6-1.8-1.8v-2.9c0-1.3.6-1.8 1.8-1.8h5.3c1.2 0 1.8-.6 1.8-1.8v-3.3h-1.8v1.5c0 1.3-.6 1.9-1.9 1.9h-5.3c-1.2 0-1.8-.6-1.8-1.9zm.1 30.7c0-1.2.6-1.8 1.8-1.8h13v-4h-11.2c-1.2 0-1.8-.6-1.8-1.8v-3c0-1.2.6-1.8 1.8-1.8h32.3c1.2 0 1.8.6 1.8 1.8v3c0 1.2-.6 1.8-1.8 1.8h-11.2v4h13c1.2 0 1.8.6 1.8 1.8v2.9c0 1.3-.6 1.9-1.8 1.9l-35.9.1c-1.2 0-1.8-.6-1.8-1.9z"/><path d="m321.6 90c0-1.3.6-1.8 1.8-1.8h15.2c1.3 0 1.8.6 1.8 1.8v14.5c0 1.3-.6 1.8-1.8 1.8h-8v19.6c0 1.3-.6 1.9-1.9 1.9h-5.3c-1.2 0-1.8-.6-1.8-1.9zm10.9 4.7v-1.6h-1.8v1.6zm0 6.6v-1.6h-1.8v1.6zm1.8 6.6h14.3c1.3 0 1.8.6 1.8 1.8v14.5c0 1.3-.6 1.8-1.8 1.8h-14.3c-1.3 0-1.8-.6-1.8-1.8v-14.5c0-1.2.6-1.8 1.8-1.8zm6.2 6.6h1.9v-1.6h-1.9zm.1 6.6h1.9v-1.6h-1.9zm18.9 6.6h-5.3c-1.3 0-1.9-.6-1.9-1.9v-19.6h-8c-1.3 0-1.8-.6-1.8-1.8v-14.5c0-1.3.6-1.8 1.8-1.8h15.2c1.2 0 1.8.6 1.8 1.8l.1 35.9c-.1 1.3-.7 1.9-1.9 1.9zm-9.1-34.7v1.6h1.8v-1.6zm0 6.3v1.7h1.8v-1.7z"/></g></g></svg>