<svg height="33" viewBox="0 0 44 33" width="44" xmlns="http://www.w3.org/2000/svg"><g fill="none" fill-rule="evenodd"><path d="m-2-8h48v48h-48z"/><g fill-rule="evenodd" transform="translate(0 -1)"><path d="m7.90624853 22.6051583-3.81249706-1.2103166c3.20826783-10.1060436 9.25260843-15.3948417 17.90624853-15.3948417s14.6979807 5.2887981 17.9062485 15.3948417l-3.812497 1.2103166c-2.7176581-8.560623-7.3399842-12.6051583-14.0937515-12.6051583s-11.3760934 4.0445353-14.09375147 12.6051583z" fill="#e5e5e5" fill-rule="nonzero"/><g fill="#b2b2b2"><rect height="4" rx="2" width="12" x="26" y="6"/><circle cx="40" cy="8" r="4"/><rect height="4" rx="2" width="12" x="6" y="6"/><circle cx="4" cy="8" r="4"/></g><circle cx="6" cy="26" fill="#fff" r="2"/><circle cx="38" cy="26" fill="#fff" r="2"/><circle cx="22" cy="8" fill="#fff" r="4"/><circle cx="22" cy="8" r="5" stroke="#b2b2b2" stroke-width="4"/><circle cx="7" cy="27" r="5" stroke="#b2b2b2" stroke-width="4"/><circle cx="37" cy="27" r="5" stroke="#b2b2b2" stroke-width="4"/></g></g></svg>