<svg height="24" viewBox="0 0 24 24" width="24" xmlns="http://www.w3.org/2000/svg"><g fill="none" fill-rule="evenodd" transform="translate(2 3)"><path d="m6.37218727 0-.77881826 2h-4.59336901c-.55228475 0-1-.44771525-1-1s.44771525-1 1-1zm6.97443833 0h5.6533744c.5522847 0 1 .44771525 1 1s-.4477153 1-1 1h-4.8432979zm-10.47912049 9-.77881826 2h-1.08868685c-.55228475 0-1-.4477153-1-1 0-.55228475.44771525-1 1-1zm14.12446469 0h2.0080302c.5522847 0 1 .44771525 1 1 0 .5522847-.4477153 1-1 1h-1.1979537zm-12.37212361-4.5-.77881826 2h-2.84102793c-.55228475 0-1-.44771525-1-1s.44771525-1 1-1zm10.54945151 0h3.8307023c.5522847 0 1 .44771525 1 1s-.4477153 1-1 1h-3.0206258z" fill="#e5e5e5" transform="translate(0 4)"/><path d="m13.3319261 15.1361478-.646438-1.6992085h-5.50395776l-.64643799 1.7361478c-.25241991.6772241-.46789709 1.1343436-.646438 1.371372-.17854091.2370285-.47097422.3555409-.8773087.3555409-.34476866 0-.64951495-.1262081-.91424802-.378628-.26473308-.2524199-.39709763-.5386967-.39709763-.858839 0-.1846975.03078245-.3755487.09234828-.5725594.06156584-.1970106.16314793-.4709745.30474935-.8218997l3.46306068-8.79155675c.09850533-.25241991.21701778-.55562708.3555409-.90963061s.2862789-.64797596.44327177-.88192612.36323531-.42326225.61873351-.56794195c.25549819-.1446797.57101835-.21701847.94656992-.21701847.38170819 0 .70030659.07233877.95580479.21701847s.4617406.33091355.6187335.55870712c.1569928.22779358.2893574.47251409.3970976.73416887s.2447221.61103563.4109499 1.04815303l3.5369393 8.73614781c.2770462.6649109.4155673 1.1481955.4155673 1.449868 0 .3139858-.1308255.6018017-.3924803.8634565-.2616547.2616548-.5771749.3924802-.9465699.3924802-.2154804 0-.4001751-.0384781-.5540897-.1154354-.1539146-.0769572-.2832009-.1816176-.3878628-.3139841-.1046619-.1323666-.2170179-.3355308-.3370712-.6094987-.1200534-.273968-.2231746-.5156102-.3093668-.724934zm-5.43007913-3.9831523h4.04485483l-2.04089705-5.36249418z" fill="#b2b2b2"/></g></svg>