<svg height="35" viewBox="0 0 40 35" width="40" xmlns="http://www.w3.org/2000/svg"><g fill="none" fill-rule="evenodd" transform="translate(-4 -6)"><g fill="#e5e5e5"><rect height="4" rx="2" width="40" x="4" y="10"/><rect height="4" rx="2" width="40" x="4" y="26"/><rect height="4" rx="2" width="40" x="4" y="18"/><rect height="4" rx="2" width="40" x="4" y="34"/></g><path d="m28.2053142 6 13.9998567 34.5642836h-35.05280204l13.42901734-34.48562544z" fill="#fff"/><path d="m31.2638522 36.4722955-1.2928759-3.3984169h-11.0079156l-1.292876 3.4722955c-.5048398 1.3544483-.9357942 2.2686872-1.292876 2.7427441s-.9419484.7110818-1.7546174.7110818c-.6895373 0-1.2990299-.2524161-1.828496-.7572559-.5294662-.5048399-.7941953-1.0773935-.7941953-1.7176781 0-.369395.0615649-.7510975.1846966-1.1451188.1231316-.3940213.3262958-.941949.6094987-1.6437994l6.9261213-17.5831135c.1970107-.5048398.4340356-1.1112542.7110818-1.8192612.2770463-.7080071.5725578-1.2959519.8865436-1.7638523.3139857-.4679003.7264706-.8465245 1.237467-1.1358839s1.1420367-.4340369 1.8931398-.4340369c.7634163 0 1.4006131.1446775 1.9116095.4340369s.9234813.6618271 1.237467 1.1174143c.3139858.4555871.5787149.9450282.7941953 1.4683377.2154804.5233096.4894442 1.2220713.8218997 2.0963061l7.0738786 17.4722955c.5540925 1.329822.8311346 2.296391.8311346 2.8997361 0 .6279715-.2616508 1.2036034-.7849604 1.726913-.5233096.5233095-1.1543499.7849604-1.8931399.7849604-.4309608 0-.8003502-.0769561-1.1081794-.2308707-.3078291-.1539146-.5664017-.3632353-.7757256-.6279684-.2093238-.264733-.4340357-.6710614-.6741424-1.2189973-.2401068-.5479359-.4463492-1.0312204-.6187336-1.4498681zm-10.8601583-7.9663044h8.0897098l-4.0817942-10.7249885z" fill="#b2b2b2"/></g></svg>