<?xml version="1.0" encoding="UTF-8" standalone="no"?>
<svg width="16px" height="14px" viewBox="0 0 16 14" version="1.1" xmlns="http://www.w3.org/2000/svg" xmlns:xlink="http://www.w3.org/1999/xlink">
    <!-- Generator: Sketch 44.1 (41455) - http://www.bohemiancoding.com/sketch -->
    <title>ui-16px-3_slide-left</title>
    <desc>Created with Sketch.</desc>
    <defs></defs>
    <g id="Page-1" stroke="none" stroke-width="1" fill="none" fill-rule="evenodd">
        <g id="Article" transform="translate(-56.000000, -49.000000)" fill-rule="nonzero" fill="#343434">
            <g id="ui-16px-3_slide-left" transform="translate(64.000000, 56.000000) scale(-1, 1) translate(-64.000000, -56.000000) translate(56.000000, 49.000000)">
                <path d="M5,6 L15,6 C15.552,6 16,6.448 16,7 L16,7 C16,7.552 15.552,8 15,8 L5,8 L5,11 L0,7 L5,3 L5,6 Z" id="Shape"></path>
                <path d="M8,2 L15,2 C15.552,2 16,1.552 16,1 L16,1 C16,0.448 15.552,0 15,0 L8,0 C7.448,0 7,0.448 7,1 L7,1 C7,1.552 7.448,2 8,2 Z" id="Shape"></path>
                <path d="M8,14 L15,14 C15.552,14 16,13.552 16,13 L16,13 C16,12.448 15.552,12 15,12 L8,12 C7.448,12 7,12.448 7,13 L7,13 C7,13.552 7.448,14 8,14 Z" id="Shape"></path>
            </g>
        </g>
    </g>
</svg>