<?xml version="1.0" encoding="UTF-8" standalone="no"?>
<svg width="16px" height="14px" viewBox="0 0 16 14" version="1.1" xmlns="http://www.w3.org/2000/svg" xmlns:xlink="http://www.w3.org/1999/xlink">
    <!-- Generator: Sketch 44.1 (41455) - http://www.bohemiancoding.com/sketch -->
    <title>social-16px_logo-twitter</title>
    <desc>Created with Sketch.</desc>
    <defs></defs>
    <g id="Page-1" stroke="none" stroke-width="1" fill="none" fill-rule="evenodd">
        <g id="Article" transform="translate(-1315.000000, -46.000000)" fill-rule="nonzero" fill="#343434">
            <g id="social-16px_logo-twitter" transform="translate(1315.000000, 46.000000)">
                <path d="M16,2 C15.4,2.3 14.8,2.4 14.1,2.5 C14.8,2.1 15.3,1.5 15.5,0.7 C14.9,1.1 14.2,1.3 13.4,1.5 C12.8,0.9 11.9,0.5 11,0.5 C9.3,0.5 7.8,2 7.8,3.8 C7.8,4.1 7.8,4.3 7.9,4.5 C5.2,4.4 2.7,3.1 1.1,1.1 C0.8,1.6 0.7,2.1 0.7,2.8 C0.7,3.9 1.3,4.9 2.2,5.5 C1.7,5.5 1.2,5.3 0.7,5.1 C0.7,5.1 0.7,5.1 0.7,5.1 C0.7,6.7 1.8,8 3.3,8.3 C3,8.4 2.7,8.4 2.4,8.4 C2.2,8.4 2,8.4 1.8,8.3 C2.2,9.6 3.4,10.6 4.9,10.6 C3.8,11.5 2.4,12 0.8,12 C0.5,12 0.3,12 6.66133815e-16,12 C1.5,12.9 3.2,13.5 5,13.5 C11,13.5 14.3,8.5 14.3,4.2 C14.3,4.1 14.3,3.9 14.3,3.8 C15,3.3 15.6,2.7 16,2 Z" id="Shape"></path>
            </g>
        </g>
    </g>
</svg>